<mxfile host="app.diagrams.net" modified="2023-10-15T01:47:23.572Z" agent="Mozilla/5.0 (Windows NT 10.0; Win64; x64) AppleWebKit/537.36 (KHTML, like Gecko) Chrome/116.0.0.0 Safari/537.36 OPR/102.0.0.0 (Edition std-1)" etag="IO_i69rrMt4GH2i7Tk8v" version="22.0.0" type="google">
  <diagram name="Page-1" id="le5eN_UCDZetbFgWxXGI">
    <mxGraphModel grid="1" page="1" gridSize="10" guides="1" tooltips="1" connect="1" arrows="1" fold="1" pageScale="1" pageWidth="850" pageHeight="1100" math="0" shadow="0">
      <root>
        <mxCell id="0" />
        <mxCell id="1" parent="0" />
        <mxCell id="ehESmXix6-o7HZ08u8BZ-1" value="PEDIDO" style="swimlane;fontStyle=0;childLayout=stackLayout;horizontal=1;startSize=30;horizontalStack=0;resizeParent=1;resizeParentMax=0;resizeLast=0;collapsible=1;marginBottom=0;whiteSpace=wrap;html=1;fillColor=#d5e8d4;strokeColor=#82b366;" vertex="1" parent="1">
          <mxGeometry x="70" y="570" width="230" height="270" as="geometry" />
        </mxCell>
        <mxCell id="ehESmXix6-o7HZ08u8BZ-2" value="COD_PEDIDO" style="text;strokeColor=none;fillColor=none;align=left;verticalAlign=middle;spacingLeft=4;spacingRight=4;overflow=hidden;points=[[0,0.5],[1,0.5]];portConstraint=eastwest;rotatable=0;whiteSpace=wrap;html=1;" vertex="1" parent="ehESmXix6-o7HZ08u8BZ-1">
          <mxGeometry y="30" width="230" height="30" as="geometry" />
        </mxCell>
        <mxCell id="ehESmXix6-o7HZ08u8BZ-5" value="COD_USUARIO" style="text;strokeColor=none;fillColor=none;align=left;verticalAlign=middle;spacingLeft=4;spacingRight=4;overflow=hidden;points=[[0,0.5],[1,0.5]];portConstraint=eastwest;rotatable=0;whiteSpace=wrap;html=1;" vertex="1" parent="ehESmXix6-o7HZ08u8BZ-1">
          <mxGeometry y="60" width="230" height="30" as="geometry" />
        </mxCell>
        <mxCell id="ehESmXix6-o7HZ08u8BZ-4" value="COD_FUNCIONARIO" style="text;strokeColor=none;fillColor=none;align=left;verticalAlign=middle;spacingLeft=4;spacingRight=4;overflow=hidden;points=[[0,0.5],[1,0.5]];portConstraint=eastwest;rotatable=0;whiteSpace=wrap;html=1;" vertex="1" parent="ehESmXix6-o7HZ08u8BZ-1">
          <mxGeometry y="90" width="230" height="30" as="geometry" />
        </mxCell>
        <mxCell id="pVWEdaKJ7a9JMEDikE1Y-1" value="COD_LOJA" style="text;strokeColor=none;fillColor=none;align=left;verticalAlign=middle;spacingLeft=4;spacingRight=4;overflow=hidden;points=[[0,0.5],[1,0.5]];portConstraint=eastwest;rotatable=0;whiteSpace=wrap;html=1;" vertex="1" parent="ehESmXix6-o7HZ08u8BZ-1">
          <mxGeometry y="120" width="230" height="30" as="geometry" />
        </mxCell>
        <mxCell id="ehESmXix6-o7HZ08u8BZ-100" value="COD_STATUS" style="text;strokeColor=none;fillColor=none;align=left;verticalAlign=middle;spacingLeft=4;spacingRight=4;overflow=hidden;points=[[0,0.5],[1,0.5]];portConstraint=eastwest;rotatable=0;whiteSpace=wrap;html=1;" vertex="1" parent="ehESmXix6-o7HZ08u8BZ-1">
          <mxGeometry y="150" width="230" height="30" as="geometry" />
        </mxCell>
        <mxCell id="ehESmXix6-o7HZ08u8BZ-6" value="DTA_PEDIDO" style="text;strokeColor=none;fillColor=none;align=left;verticalAlign=middle;spacingLeft=4;spacingRight=4;overflow=hidden;points=[[0,0.5],[1,0.5]];portConstraint=eastwest;rotatable=0;whiteSpace=wrap;html=1;" vertex="1" parent="ehESmXix6-o7HZ08u8BZ-1">
          <mxGeometry y="180" width="230" height="30" as="geometry" />
        </mxCell>
        <mxCell id="ehESmXix6-o7HZ08u8BZ-238" value="COD_FORMA_PAGAMAENTO" style="text;strokeColor=none;fillColor=none;align=left;verticalAlign=middle;spacingLeft=4;spacingRight=4;overflow=hidden;points=[[0,0.5],[1,0.5]];portConstraint=eastwest;rotatable=0;whiteSpace=wrap;html=1;" vertex="1" parent="ehESmXix6-o7HZ08u8BZ-1">
          <mxGeometry y="210" width="230" height="30" as="geometry" />
        </mxCell>
        <mxCell id="ehESmXix6-o7HZ08u8BZ-239" value="VAL_TOTAL_PEDIDO" style="text;strokeColor=none;fillColor=none;align=left;verticalAlign=middle;spacingLeft=4;spacingRight=4;overflow=hidden;points=[[0,0.5],[1,0.5]];portConstraint=eastwest;rotatable=0;whiteSpace=wrap;html=1;" vertex="1" parent="ehESmXix6-o7HZ08u8BZ-1">
          <mxGeometry y="240" width="230" height="30" as="geometry" />
        </mxCell>
        <mxCell id="ehESmXix6-o7HZ08u8BZ-8" value="PRODUTO" style="swimlane;fontStyle=0;childLayout=stackLayout;horizontal=1;startSize=30;horizontalStack=0;resizeParent=1;resizeParentMax=0;resizeLast=0;collapsible=1;marginBottom=0;whiteSpace=wrap;html=1;fillColor=#1ba1e2;strokeColor=#006EAF;fontColor=#ffffff;" vertex="1" parent="1">
          <mxGeometry x="120" y="1320" width="140" height="150" as="geometry" />
        </mxCell>
        <mxCell id="ehESmXix6-o7HZ08u8BZ-9" value="COD_PRODUTO" style="text;strokeColor=none;fillColor=none;align=left;verticalAlign=middle;spacingLeft=4;spacingRight=4;overflow=hidden;points=[[0,0.5],[1,0.5]];portConstraint=eastwest;rotatable=0;whiteSpace=wrap;html=1;" vertex="1" parent="ehESmXix6-o7HZ08u8BZ-8">
          <mxGeometry y="30" width="140" height="30" as="geometry" />
        </mxCell>
        <mxCell id="ehESmXix6-o7HZ08u8BZ-10" value="NOM_PRODUTO" style="text;strokeColor=none;fillColor=none;align=left;verticalAlign=middle;spacingLeft=4;spacingRight=4;overflow=hidden;points=[[0,0.5],[1,0.5]];portConstraint=eastwest;rotatable=0;whiteSpace=wrap;html=1;" vertex="1" parent="ehESmXix6-o7HZ08u8BZ-8">
          <mxGeometry y="60" width="140" height="30" as="geometry" />
        </mxCell>
        <mxCell id="ehESmXix6-o7HZ08u8BZ-11" value="COD_TIPO_PRODUTO" style="text;strokeColor=none;fillColor=none;align=left;verticalAlign=middle;spacingLeft=4;spacingRight=4;overflow=hidden;points=[[0,0.5],[1,0.5]];portConstraint=eastwest;rotatable=0;whiteSpace=wrap;html=1;" vertex="1" parent="ehESmXix6-o7HZ08u8BZ-8">
          <mxGeometry y="90" width="140" height="30" as="geometry" />
        </mxCell>
        <mxCell id="ehESmXix6-o7HZ08u8BZ-13" value="VAL_PRODUTO" style="text;strokeColor=none;fillColor=none;align=left;verticalAlign=middle;spacingLeft=4;spacingRight=4;overflow=hidden;points=[[0,0.5],[1,0.5]];portConstraint=eastwest;rotatable=0;whiteSpace=wrap;html=1;" vertex="1" parent="ehESmXix6-o7HZ08u8BZ-8">
          <mxGeometry y="120" width="140" height="30" as="geometry" />
        </mxCell>
        <mxCell id="ehESmXix6-o7HZ08u8BZ-14" value="USUARIO" style="swimlane;fontStyle=0;childLayout=stackLayout;horizontal=1;startSize=30;horizontalStack=0;resizeParent=1;resizeParentMax=0;resizeLast=0;collapsible=1;marginBottom=0;whiteSpace=wrap;html=1;fillColor=#d5e8d4;strokeColor=#82b366;" vertex="1" parent="1">
          <mxGeometry x="-280" y="570" width="140" height="300" as="geometry" />
        </mxCell>
        <mxCell id="ehESmXix6-o7HZ08u8BZ-15" value="COD_USUARIO" style="text;strokeColor=none;fillColor=none;align=left;verticalAlign=middle;spacingLeft=4;spacingRight=4;overflow=hidden;points=[[0,0.5],[1,0.5]];portConstraint=eastwest;rotatable=0;whiteSpace=wrap;html=1;" vertex="1" parent="ehESmXix6-o7HZ08u8BZ-14">
          <mxGeometry y="30" width="140" height="30" as="geometry" />
        </mxCell>
        <mxCell id="ehESmXix6-o7HZ08u8BZ-16" value="NOM_USUARIO" style="text;strokeColor=none;fillColor=none;align=left;verticalAlign=middle;spacingLeft=4;spacingRight=4;overflow=hidden;points=[[0,0.5],[1,0.5]];portConstraint=eastwest;rotatable=0;whiteSpace=wrap;html=1;" vertex="1" parent="ehESmXix6-o7HZ08u8BZ-14">
          <mxGeometry y="60" width="140" height="30" as="geometry" />
        </mxCell>
        <mxCell id="yw2C3HzO3rmrH0eIrEtk-55" value="CPF_USUARIO" style="text;strokeColor=none;fillColor=none;align=left;verticalAlign=middle;spacingLeft=4;spacingRight=4;overflow=hidden;points=[[0,0.5],[1,0.5]];portConstraint=eastwest;rotatable=0;whiteSpace=wrap;html=1;" vertex="1" parent="ehESmXix6-o7HZ08u8BZ-14">
          <mxGeometry y="90" width="140" height="30" as="geometry" />
        </mxCell>
        <mxCell id="ehESmXix6-o7HZ08u8BZ-309" value="IS_ADMIN" style="text;strokeColor=none;fillColor=none;align=left;verticalAlign=middle;spacingLeft=4;spacingRight=4;overflow=hidden;points=[[0,0.5],[1,0.5]];portConstraint=eastwest;rotatable=0;whiteSpace=wrap;html=1;" vertex="1" parent="ehESmXix6-o7HZ08u8BZ-14">
          <mxGeometry y="120" width="140" height="30" as="geometry" />
        </mxCell>
        <mxCell id="ehESmXix6-o7HZ08u8BZ-17" value="LOGIN" style="text;strokeColor=none;fillColor=none;align=left;verticalAlign=middle;spacingLeft=4;spacingRight=4;overflow=hidden;points=[[0,0.5],[1,0.5]];portConstraint=eastwest;rotatable=0;whiteSpace=wrap;html=1;" vertex="1" parent="ehESmXix6-o7HZ08u8BZ-14">
          <mxGeometry y="150" width="140" height="30" as="geometry" />
        </mxCell>
        <mxCell id="ehESmXix6-o7HZ08u8BZ-18" value="SENHA" style="text;strokeColor=none;fillColor=none;align=left;verticalAlign=middle;spacingLeft=4;spacingRight=4;overflow=hidden;points=[[0,0.5],[1,0.5]];portConstraint=eastwest;rotatable=0;whiteSpace=wrap;html=1;" vertex="1" parent="ehESmXix6-o7HZ08u8BZ-14">
          <mxGeometry y="180" width="140" height="30" as="geometry" />
        </mxCell>
        <mxCell id="ehESmXix6-o7HZ08u8BZ-19" value="EMAIL" style="text;strokeColor=none;fillColor=none;align=left;verticalAlign=middle;spacingLeft=4;spacingRight=4;overflow=hidden;points=[[0,0.5],[1,0.5]];portConstraint=eastwest;rotatable=0;whiteSpace=wrap;html=1;" vertex="1" parent="ehESmXix6-o7HZ08u8BZ-14">
          <mxGeometry y="210" width="140" height="30" as="geometry" />
        </mxCell>
        <mxCell id="ehESmXix6-o7HZ08u8BZ-20" value="COD_ENDERECO" style="text;strokeColor=none;fillColor=none;align=left;verticalAlign=middle;spacingLeft=4;spacingRight=4;overflow=hidden;points=[[0,0.5],[1,0.5]];portConstraint=eastwest;rotatable=0;whiteSpace=wrap;html=1;" vertex="1" parent="ehESmXix6-o7HZ08u8BZ-14">
          <mxGeometry y="240" width="140" height="30" as="geometry" />
        </mxCell>
        <mxCell id="ehESmXix6-o7HZ08u8BZ-21" value="TELEFONE" style="text;strokeColor=none;fillColor=none;align=left;verticalAlign=middle;spacingLeft=4;spacingRight=4;overflow=hidden;points=[[0,0.5],[1,0.5]];portConstraint=eastwest;rotatable=0;whiteSpace=wrap;html=1;" vertex="1" parent="ehESmXix6-o7HZ08u8BZ-14">
          <mxGeometry y="270" width="140" height="30" as="geometry" />
        </mxCell>
        <mxCell id="ehESmXix6-o7HZ08u8BZ-22" value="" style="endArrow=none;html=1;rounded=0;entryX=-0.007;entryY=0;entryDx=0;entryDy=0;entryPerimeter=0;exitX=0;exitY=1;exitDx=0;exitDy=0;" edge="1" parent="1" source="ehESmXix6-o7HZ08u8BZ-32" target="ehESmXix6-o7HZ08u8BZ-2">
          <mxGeometry width="50" height="50" relative="1" as="geometry">
            <mxPoint x="-70" y="600" as="sourcePoint" />
            <mxPoint x="-20" y="550" as="targetPoint" />
          </mxGeometry>
        </mxCell>
        <mxCell id="ehESmXix6-o7HZ08u8BZ-26" value="" style="endArrow=none;html=1;rounded=0;entryX=0.014;entryY=-0.033;entryDx=0;entryDy=0;entryPerimeter=0;exitX=0;exitY=1;exitDx=0;exitDy=0;" edge="1" parent="1" source="ehESmXix6-o7HZ08u8BZ-34" target="ehESmXix6-o7HZ08u8BZ-28">
          <mxGeometry width="50" height="50" relative="1" as="geometry">
            <mxPoint x="260" y="600" as="sourcePoint" />
            <mxPoint x="310" y="550" as="targetPoint" />
          </mxGeometry>
        </mxCell>
        <mxCell id="ehESmXix6-o7HZ08u8BZ-27" value="LOJA" style="swimlane;fontStyle=0;childLayout=stackLayout;horizontal=1;startSize=30;horizontalStack=0;resizeParent=1;resizeParentMax=0;resizeLast=0;collapsible=1;marginBottom=0;whiteSpace=wrap;html=1;fillColor=#1ba1e2;strokeColor=#006EAF;fontColor=#ffffff;" vertex="1" parent="1">
          <mxGeometry x="620" y="570" width="140" height="120" as="geometry" />
        </mxCell>
        <mxCell id="ehESmXix6-o7HZ08u8BZ-28" value="COD_LOJA" style="text;strokeColor=none;fillColor=none;align=left;verticalAlign=middle;spacingLeft=4;spacingRight=4;overflow=hidden;points=[[0,0.5],[1,0.5]];portConstraint=eastwest;rotatable=0;whiteSpace=wrap;html=1;" vertex="1" parent="ehESmXix6-o7HZ08u8BZ-27">
          <mxGeometry y="30" width="140" height="30" as="geometry" />
        </mxCell>
        <mxCell id="ehESmXix6-o7HZ08u8BZ-29" value="NOM_LOJA" style="text;strokeColor=none;fillColor=none;align=left;verticalAlign=middle;spacingLeft=4;spacingRight=4;overflow=hidden;points=[[0,0.5],[1,0.5]];portConstraint=eastwest;rotatable=0;whiteSpace=wrap;html=1;" vertex="1" parent="ehESmXix6-o7HZ08u8BZ-27">
          <mxGeometry y="60" width="140" height="30" as="geometry" />
        </mxCell>
        <mxCell id="ehESmXix6-o7HZ08u8BZ-30" value="COD_ENDERECO" style="text;strokeColor=none;fillColor=none;align=left;verticalAlign=middle;spacingLeft=4;spacingRight=4;overflow=hidden;points=[[0,0.5],[1,0.5]];portConstraint=eastwest;rotatable=0;whiteSpace=wrap;html=1;" vertex="1" parent="ehESmXix6-o7HZ08u8BZ-27">
          <mxGeometry y="90" width="140" height="30" as="geometry" />
        </mxCell>
        <mxCell id="ehESmXix6-o7HZ08u8BZ-32" value="(1,1)" style="text;html=1;strokeColor=none;fillColor=none;align=center;verticalAlign=middle;whiteSpace=wrap;rounded=0;" vertex="1" parent="1">
          <mxGeometry x="-140" y="570" width="60" height="30" as="geometry" />
        </mxCell>
        <mxCell id="ehESmXix6-o7HZ08u8BZ-33" value="(0,n)" style="text;html=1;strokeColor=none;fillColor=none;align=center;verticalAlign=middle;whiteSpace=wrap;rounded=0;" vertex="1" parent="1">
          <mxGeometry y="570" width="60" height="30" as="geometry" />
        </mxCell>
        <mxCell id="ehESmXix6-o7HZ08u8BZ-34" value="(1,n)" style="text;html=1;strokeColor=none;fillColor=none;align=center;verticalAlign=middle;whiteSpace=wrap;rounded=0;" vertex="1" parent="1">
          <mxGeometry x="300" y="570" width="60" height="30" as="geometry" />
        </mxCell>
        <mxCell id="ehESmXix6-o7HZ08u8BZ-35" value="(1,1)" style="text;html=1;strokeColor=none;fillColor=none;align=center;verticalAlign=middle;whiteSpace=wrap;rounded=0;" vertex="1" parent="1">
          <mxGeometry x="560" y="570" width="60" height="30" as="geometry" />
        </mxCell>
        <mxCell id="ehESmXix6-o7HZ08u8BZ-36" value="(1,1)" style="text;html=1;strokeColor=none;fillColor=none;align=center;verticalAlign=middle;whiteSpace=wrap;rounded=0;" vertex="1" parent="1">
          <mxGeometry x="200" y="840" width="60" height="30" as="geometry" />
        </mxCell>
        <mxCell id="ehESmXix6-o7HZ08u8BZ-37" value="(1,n)" style="text;html=1;strokeColor=none;fillColor=none;align=center;verticalAlign=middle;whiteSpace=wrap;rounded=0;" vertex="1" parent="1">
          <mxGeometry x="200" y="980" width="60" height="30" as="geometry" />
        </mxCell>
        <mxCell id="ehESmXix6-o7HZ08u8BZ-38" value="FORNECEDOR" style="swimlane;fontStyle=0;childLayout=stackLayout;horizontal=1;startSize=30;horizontalStack=0;resizeParent=1;resizeParentMax=0;resizeLast=0;collapsible=1;marginBottom=0;whiteSpace=wrap;html=1;fillColor=#1ba1e2;strokeColor=#006EAF;fontColor=#ffffff;" vertex="1" parent="1">
          <mxGeometry x="1240" y="1660" width="140" height="120" as="geometry" />
        </mxCell>
        <mxCell id="ehESmXix6-o7HZ08u8BZ-39" value="COD_FORNECEDOR" style="text;strokeColor=none;fillColor=none;align=left;verticalAlign=middle;spacingLeft=4;spacingRight=4;overflow=hidden;points=[[0,0.5],[1,0.5]];portConstraint=eastwest;rotatable=0;whiteSpace=wrap;html=1;" vertex="1" parent="ehESmXix6-o7HZ08u8BZ-38">
          <mxGeometry y="30" width="140" height="30" as="geometry" />
        </mxCell>
        <mxCell id="ehESmXix6-o7HZ08u8BZ-41" value="NOM_FORNECEDOR" style="text;strokeColor=none;fillColor=none;align=left;verticalAlign=middle;spacingLeft=4;spacingRight=4;overflow=hidden;points=[[0,0.5],[1,0.5]];portConstraint=eastwest;rotatable=0;whiteSpace=wrap;html=1;" vertex="1" parent="ehESmXix6-o7HZ08u8BZ-38">
          <mxGeometry y="60" width="140" height="30" as="geometry" />
        </mxCell>
        <mxCell id="ehESmXix6-o7HZ08u8BZ-43" value="COD_ENDERECO" style="text;strokeColor=none;fillColor=none;align=left;verticalAlign=middle;spacingLeft=4;spacingRight=4;overflow=hidden;points=[[0,0.5],[1,0.5]];portConstraint=eastwest;rotatable=0;whiteSpace=wrap;html=1;" vertex="1" parent="ehESmXix6-o7HZ08u8BZ-38">
          <mxGeometry y="90" width="140" height="30" as="geometry" />
        </mxCell>
        <mxCell id="ehESmXix6-o7HZ08u8BZ-47" value="(1,1)" style="text;html=1;strokeColor=none;fillColor=none;align=center;verticalAlign=middle;whiteSpace=wrap;rounded=0;" vertex="1" parent="1">
          <mxGeometry x="200" y="1470" width="60" height="30" as="geometry" />
        </mxCell>
        <mxCell id="ehESmXix6-o7HZ08u8BZ-48" value="(1,n)" style="text;html=1;strokeColor=none;fillColor=none;align=center;verticalAlign=middle;whiteSpace=wrap;rounded=0;" vertex="1" parent="1">
          <mxGeometry x="760" y="1660" width="60" height="30" as="geometry" />
        </mxCell>
        <mxCell id="ehESmXix6-o7HZ08u8BZ-51" value="ESTOQUE" style="swimlane;fontStyle=0;childLayout=stackLayout;horizontal=1;startSize=30;horizontalStack=0;resizeParent=1;resizeParentMax=0;resizeLast=0;collapsible=1;marginBottom=0;whiteSpace=wrap;html=1;fillColor=#ffe6cc;strokeColor=#d79b00;" vertex="1" parent="1">
          <mxGeometry x="610" y="1000" width="140" height="90" as="geometry" />
        </mxCell>
        <mxCell id="ehESmXix6-o7HZ08u8BZ-52" value="COD_ESTOQUE" style="text;strokeColor=none;fillColor=none;align=left;verticalAlign=middle;spacingLeft=4;spacingRight=4;overflow=hidden;points=[[0,0.5],[1,0.5]];portConstraint=eastwest;rotatable=0;whiteSpace=wrap;html=1;" vertex="1" parent="ehESmXix6-o7HZ08u8BZ-51">
          <mxGeometry y="30" width="140" height="30" as="geometry" />
        </mxCell>
        <mxCell id="ehESmXix6-o7HZ08u8BZ-55" value="COD_LOJA" style="text;strokeColor=none;fillColor=none;align=left;verticalAlign=middle;spacingLeft=4;spacingRight=4;overflow=hidden;points=[[0,0.5],[1,0.5]];portConstraint=eastwest;rotatable=0;whiteSpace=wrap;html=1;" vertex="1" parent="ehESmXix6-o7HZ08u8BZ-51">
          <mxGeometry y="60" width="140" height="30" as="geometry" />
        </mxCell>
        <mxCell id="ehESmXix6-o7HZ08u8BZ-60" value="(1,n)&amp;nbsp;" style="text;html=1;strokeColor=none;fillColor=none;align=center;verticalAlign=middle;whiteSpace=wrap;rounded=0;" vertex="1" parent="1">
          <mxGeometry x="640" y="970" width="60" height="30" as="geometry" />
        </mxCell>
        <mxCell id="ehESmXix6-o7HZ08u8BZ-61" value="(1,1 )" style="text;html=1;strokeColor=none;fillColor=none;align=center;verticalAlign=middle;whiteSpace=wrap;rounded=0;" vertex="1" parent="1">
          <mxGeometry x="640" y="690" width="60" height="30" as="geometry" />
        </mxCell>
        <mxCell id="ehESmXix6-o7HZ08u8BZ-64" value="FUNCIONARIO" style="swimlane;fontStyle=0;childLayout=stackLayout;horizontal=1;startSize=30;horizontalStack=0;resizeParent=1;resizeParentMax=0;resizeLast=0;collapsible=1;marginBottom=0;whiteSpace=wrap;html=1;fillColor=#d5e8d4;strokeColor=#82b366;" vertex="1" parent="1">
          <mxGeometry x="335" y="-40" width="160" height="180" as="geometry" />
        </mxCell>
        <mxCell id="ehESmXix6-o7HZ08u8BZ-65" value="COD_FUNCIONARIO" style="text;strokeColor=none;fillColor=none;align=left;verticalAlign=middle;spacingLeft=4;spacingRight=4;overflow=hidden;points=[[0,0.5],[1,0.5]];portConstraint=eastwest;rotatable=0;whiteSpace=wrap;html=1;" vertex="1" parent="ehESmXix6-o7HZ08u8BZ-64">
          <mxGeometry y="30" width="160" height="30" as="geometry" />
        </mxCell>
        <mxCell id="ehESmXix6-o7HZ08u8BZ-66" value="NOM_FUNCIONARIO" style="text;strokeColor=none;fillColor=none;align=left;verticalAlign=middle;spacingLeft=4;spacingRight=4;overflow=hidden;points=[[0,0.5],[1,0.5]];portConstraint=eastwest;rotatable=0;whiteSpace=wrap;html=1;" vertex="1" parent="ehESmXix6-o7HZ08u8BZ-64">
          <mxGeometry y="60" width="160" height="30" as="geometry" />
        </mxCell>
        <mxCell id="ehESmXix6-o7HZ08u8BZ-67" value="COD_LOJA" style="text;strokeColor=none;fillColor=none;align=left;verticalAlign=middle;spacingLeft=4;spacingRight=4;overflow=hidden;points=[[0,0.5],[1,0.5]];portConstraint=eastwest;rotatable=0;whiteSpace=wrap;html=1;" vertex="1" parent="ehESmXix6-o7HZ08u8BZ-64">
          <mxGeometry y="90" width="160" height="30" as="geometry" />
        </mxCell>
        <mxCell id="ehESmXix6-o7HZ08u8BZ-86" value="COD_USUARIO" style="text;strokeColor=none;fillColor=none;align=left;verticalAlign=middle;spacingLeft=4;spacingRight=4;overflow=hidden;points=[[0,0.5],[1,0.5]];portConstraint=eastwest;rotatable=0;whiteSpace=wrap;html=1;" vertex="1" parent="ehESmXix6-o7HZ08u8BZ-64">
          <mxGeometry y="120" width="160" height="30" as="geometry" />
        </mxCell>
        <mxCell id="ehESmXix6-o7HZ08u8BZ-69" value="COD_ENDERECO" style="text;strokeColor=none;fillColor=none;align=left;verticalAlign=middle;spacingLeft=4;spacingRight=4;overflow=hidden;points=[[0,0.5],[1,0.5]];portConstraint=eastwest;rotatable=0;whiteSpace=wrap;html=1;" vertex="1" parent="ehESmXix6-o7HZ08u8BZ-64">
          <mxGeometry y="150" width="160" height="30" as="geometry" />
        </mxCell>
        <mxCell id="ehESmXix6-o7HZ08u8BZ-70" value="" style="endArrow=none;html=1;rounded=0;entryX=1.014;entryY=0.033;entryDx=0;entryDy=0;entryPerimeter=0;exitX=0.889;exitY=1.067;exitDx=0;exitDy=0;exitPerimeter=0;" edge="1" parent="1" source="ehESmXix6-o7HZ08u8BZ-73" target="ehESmXix6-o7HZ08u8BZ-65">
          <mxGeometry width="50" height="50" relative="1" as="geometry">
            <mxPoint x="670" y="170" as="sourcePoint" />
            <mxPoint x="360" y="-60" as="targetPoint" />
            <Array as="points">
              <mxPoint x="673" y="-10" />
            </Array>
          </mxGeometry>
        </mxCell>
        <mxCell id="ehESmXix6-o7HZ08u8BZ-72" value="(1,n)" style="text;html=1;strokeColor=none;fillColor=none;align=center;verticalAlign=middle;whiteSpace=wrap;rounded=0;" vertex="1" parent="1">
          <mxGeometry x="515" y="-40" width="60" height="30" as="geometry" />
        </mxCell>
        <mxCell id="ehESmXix6-o7HZ08u8BZ-73" value="(1,1)" style="text;html=1;strokeColor=none;fillColor=none;align=center;verticalAlign=middle;whiteSpace=wrap;rounded=0;" vertex="1" parent="1">
          <mxGeometry x="620" y="540" width="60" height="30" as="geometry" />
        </mxCell>
        <mxCell id="ehESmXix6-o7HZ08u8BZ-74" value="" style="endArrow=none;html=1;rounded=0;exitX=0;exitY=1;exitDx=0;exitDy=0;entryX=0.756;entryY=1.034;entryDx=0;entryDy=0;entryPerimeter=0;" edge="1" parent="1" source="ehESmXix6-o7HZ08u8BZ-76" target="ehESmXix6-o7HZ08u8BZ-69">
          <mxGeometry width="50" height="50" relative="1" as="geometry">
            <mxPoint x="200" y="160" as="sourcePoint" />
            <mxPoint x="200" y="-90" as="targetPoint" />
            <Array as="points">
              <mxPoint x="200" y="360" />
              <mxPoint x="455" y="360" />
            </Array>
          </mxGeometry>
        </mxCell>
        <mxCell id="ehESmXix6-o7HZ08u8BZ-75" value="(1,1)" style="text;html=1;strokeColor=none;fillColor=none;align=center;verticalAlign=middle;whiteSpace=wrap;rounded=0;" vertex="1" parent="1">
          <mxGeometry x="455" y="140" width="60" height="30" as="geometry" />
        </mxCell>
        <mxCell id="ehESmXix6-o7HZ08u8BZ-76" value="(1,n)" style="text;html=1;strokeColor=none;fillColor=none;align=center;verticalAlign=middle;whiteSpace=wrap;rounded=0;" vertex="1" parent="1">
          <mxGeometry x="200" y="540" width="60" height="30" as="geometry" />
        </mxCell>
        <mxCell id="ehESmXix6-o7HZ08u8BZ-88" value="(1,1)" style="text;html=1;strokeColor=none;fillColor=none;align=center;verticalAlign=middle;whiteSpace=wrap;rounded=0;" vertex="1" parent="1">
          <mxGeometry x="275" y="-40" width="60" height="30" as="geometry" />
        </mxCell>
        <mxCell id="ehESmXix6-o7HZ08u8BZ-89" value="RELATORIO" style="swimlane;fontStyle=0;childLayout=stackLayout;horizontal=1;startSize=30;horizontalStack=0;resizeParent=1;resizeParentMax=0;resizeLast=0;collapsible=1;marginBottom=0;whiteSpace=wrap;html=1;fillColor=#008a00;strokeColor=#005700;fontColor=#ffffff;" vertex="1" parent="1">
          <mxGeometry x="920" y="280" width="140" height="180" as="geometry" />
        </mxCell>
        <mxCell id="ehESmXix6-o7HZ08u8BZ-90" value="COD_RELATORIO" style="text;strokeColor=none;fillColor=none;align=left;verticalAlign=middle;spacingLeft=4;spacingRight=4;overflow=hidden;points=[[0,0.5],[1,0.5]];portConstraint=eastwest;rotatable=0;whiteSpace=wrap;html=1;" vertex="1" parent="ehESmXix6-o7HZ08u8BZ-89">
          <mxGeometry y="30" width="140" height="30" as="geometry" />
        </mxCell>
        <mxCell id="ehESmXix6-o7HZ08u8BZ-91" value="COD_LOJA" style="text;strokeColor=none;fillColor=none;align=left;verticalAlign=middle;spacingLeft=4;spacingRight=4;overflow=hidden;points=[[0,0.5],[1,0.5]];portConstraint=eastwest;rotatable=0;whiteSpace=wrap;html=1;" vertex="1" parent="ehESmXix6-o7HZ08u8BZ-89">
          <mxGeometry y="60" width="140" height="30" as="geometry" />
        </mxCell>
        <mxCell id="ehESmXix6-o7HZ08u8BZ-92" value="DTA_INICIO" style="text;strokeColor=none;fillColor=none;align=left;verticalAlign=middle;spacingLeft=4;spacingRight=4;overflow=hidden;points=[[0,0.5],[1,0.5]];portConstraint=eastwest;rotatable=0;whiteSpace=wrap;html=1;" vertex="1" parent="ehESmXix6-o7HZ08u8BZ-89">
          <mxGeometry y="90" width="140" height="30" as="geometry" />
        </mxCell>
        <mxCell id="ehESmXix6-o7HZ08u8BZ-93" value="DTA_FIM" style="text;strokeColor=none;fillColor=none;align=left;verticalAlign=middle;spacingLeft=4;spacingRight=4;overflow=hidden;points=[[0,0.5],[1,0.5]];portConstraint=eastwest;rotatable=0;whiteSpace=wrap;html=1;" vertex="1" parent="ehESmXix6-o7HZ08u8BZ-89">
          <mxGeometry y="120" width="140" height="30" as="geometry" />
        </mxCell>
        <mxCell id="ehESmXix6-o7HZ08u8BZ-94" value="VAL_TOTAL_VENDAS" style="text;strokeColor=none;fillColor=none;align=left;verticalAlign=middle;spacingLeft=4;spacingRight=4;overflow=hidden;points=[[0,0.5],[1,0.5]];portConstraint=eastwest;rotatable=0;whiteSpace=wrap;html=1;" vertex="1" parent="ehESmXix6-o7HZ08u8BZ-89">
          <mxGeometry y="150" width="140" height="30" as="geometry" />
        </mxCell>
        <mxCell id="ehESmXix6-o7HZ08u8BZ-95" value="" style="endArrow=none;html=1;rounded=0;entryX=0;entryY=-0.033;entryDx=0;entryDy=0;entryPerimeter=0;" edge="1" parent="1" target="ehESmXix6-o7HZ08u8BZ-90">
          <mxGeometry width="50" height="50" relative="1" as="geometry">
            <mxPoint x="760" y="600" as="sourcePoint" />
            <mxPoint x="810" y="550" as="targetPoint" />
            <Array as="points">
              <mxPoint x="830" y="600" />
              <mxPoint x="830" y="309" />
            </Array>
          </mxGeometry>
        </mxCell>
        <mxCell id="ehESmXix6-o7HZ08u8BZ-96" value="(1,1)" style="text;html=1;strokeColor=none;fillColor=none;align=center;verticalAlign=middle;whiteSpace=wrap;rounded=0;" vertex="1" parent="1">
          <mxGeometry x="760" y="570" width="60" height="30" as="geometry" />
        </mxCell>
        <mxCell id="ehESmXix6-o7HZ08u8BZ-97" value="(1,n)" style="text;html=1;strokeColor=none;fillColor=none;align=center;verticalAlign=middle;whiteSpace=wrap;rounded=0;" vertex="1" parent="1">
          <mxGeometry x="860" y="280" width="60" height="30" as="geometry" />
        </mxCell>
        <mxCell id="ehESmXix6-o7HZ08u8BZ-99" value="(1,1 )" style="text;html=1;strokeColor=none;fillColor=none;align=center;verticalAlign=middle;whiteSpace=wrap;rounded=0;" vertex="1" parent="1">
          <mxGeometry x="1340" y="1630" width="60" height="30" as="geometry" />
        </mxCell>
        <mxCell id="ehESmXix6-o7HZ08u8BZ-101" value="STATUS" style="swimlane;fontStyle=0;childLayout=stackLayout;horizontal=1;startSize=30;horizontalStack=0;resizeParent=1;resizeParentMax=0;resizeLast=0;collapsible=1;marginBottom=0;whiteSpace=wrap;html=1;fillColor=#dae8fc;strokeColor=#6c8ebf;" vertex="1" parent="1">
          <mxGeometry x="430" y="640" width="140" height="90" as="geometry" />
        </mxCell>
        <mxCell id="ehESmXix6-o7HZ08u8BZ-102" value="COD_STATUS" style="text;strokeColor=none;fillColor=none;align=left;verticalAlign=middle;spacingLeft=4;spacingRight=4;overflow=hidden;points=[[0,0.5],[1,0.5]];portConstraint=eastwest;rotatable=0;whiteSpace=wrap;html=1;" vertex="1" parent="ehESmXix6-o7HZ08u8BZ-101">
          <mxGeometry y="30" width="140" height="30" as="geometry" />
        </mxCell>
        <mxCell id="ehESmXix6-o7HZ08u8BZ-103" value="DES_STATUS" style="text;strokeColor=none;fillColor=none;align=left;verticalAlign=middle;spacingLeft=4;spacingRight=4;overflow=hidden;points=[[0,0.5],[1,0.5]];portConstraint=eastwest;rotatable=0;whiteSpace=wrap;html=1;" vertex="1" parent="ehESmXix6-o7HZ08u8BZ-101">
          <mxGeometry y="60" width="140" height="30" as="geometry" />
        </mxCell>
        <mxCell id="ehESmXix6-o7HZ08u8BZ-105" value="" style="endArrow=none;html=1;rounded=0;entryX=-0.007;entryY=0;entryDx=0;entryDy=0;entryPerimeter=0;exitX=0.006;exitY=1;exitDx=0;exitDy=0;exitPerimeter=0;" edge="1" parent="1" source="ehESmXix6-o7HZ08u8BZ-107" target="ehESmXix6-o7HZ08u8BZ-102">
          <mxGeometry width="50" height="50" relative="1" as="geometry">
            <mxPoint x="260" y="740" as="sourcePoint" />
            <mxPoint x="310" y="690" as="targetPoint" />
          </mxGeometry>
        </mxCell>
        <mxCell id="ehESmXix6-o7HZ08u8BZ-106" value="(1,1)" style="text;html=1;strokeColor=none;fillColor=none;align=center;verticalAlign=middle;whiteSpace=wrap;rounded=0;" vertex="1" parent="1">
          <mxGeometry x="370" y="640" width="60" height="30" as="geometry" />
        </mxCell>
        <mxCell id="ehESmXix6-o7HZ08u8BZ-107" value="(1,n)" style="text;html=1;strokeColor=none;fillColor=none;align=center;verticalAlign=middle;whiteSpace=wrap;rounded=0;" vertex="1" parent="1">
          <mxGeometry x="300" y="640" width="60" height="30" as="geometry" />
        </mxCell>
        <mxCell id="ehESmXix6-o7HZ08u8BZ-108" value="ITEM_PEDIDO_PRODUTO" style="swimlane;fontStyle=0;childLayout=stackLayout;horizontal=1;startSize=30;horizontalStack=0;resizeParent=1;resizeParentMax=0;resizeLast=0;collapsible=1;marginBottom=0;whiteSpace=wrap;html=1;fillColor=#d5e8d4;strokeColor=#82b366;" vertex="1" parent="1">
          <mxGeometry x="30" y="1010" width="320" height="150" as="geometry" />
        </mxCell>
        <mxCell id="ehESmXix6-o7HZ08u8BZ-110" value="COD_PEDIDO" style="text;strokeColor=none;fillColor=none;align=left;verticalAlign=middle;spacingLeft=4;spacingRight=4;overflow=hidden;points=[[0,0.5],[1,0.5]];portConstraint=eastwest;rotatable=0;whiteSpace=wrap;html=1;" vertex="1" parent="ehESmXix6-o7HZ08u8BZ-108">
          <mxGeometry y="30" width="320" height="30" as="geometry" />
        </mxCell>
        <mxCell id="ehESmXix6-o7HZ08u8BZ-111" value="COD_PRODUTO" style="text;strokeColor=none;fillColor=none;align=left;verticalAlign=middle;spacingLeft=4;spacingRight=4;overflow=hidden;points=[[0,0.5],[1,0.5]];portConstraint=eastwest;rotatable=0;whiteSpace=wrap;html=1;" vertex="1" parent="ehESmXix6-o7HZ08u8BZ-108">
          <mxGeometry y="60" width="320" height="30" as="geometry" />
        </mxCell>
        <mxCell id="ehESmXix6-o7HZ08u8BZ-112" value="QTD_PRODUTO" style="text;strokeColor=none;fillColor=none;align=left;verticalAlign=middle;spacingLeft=4;spacingRight=4;overflow=hidden;points=[[0,0.5],[1,0.5]];portConstraint=eastwest;rotatable=0;whiteSpace=wrap;html=1;" vertex="1" parent="ehESmXix6-o7HZ08u8BZ-108">
          <mxGeometry y="90" width="320" height="30" as="geometry" />
        </mxCell>
        <mxCell id="ehESmXix6-o7HZ08u8BZ-113" value="VAL_QTD_PRODUTO_VENDA&amp;nbsp;" style="text;strokeColor=none;fillColor=none;align=left;verticalAlign=middle;spacingLeft=4;spacingRight=4;overflow=hidden;points=[[0,0.5],[1,0.5]];portConstraint=eastwest;rotatable=0;whiteSpace=wrap;html=1;" vertex="1" parent="ehESmXix6-o7HZ08u8BZ-108">
          <mxGeometry y="120" width="320" height="30" as="geometry" />
        </mxCell>
        <mxCell id="ehESmXix6-o7HZ08u8BZ-114" value="" style="endArrow=none;html=1;rounded=0;exitX=0.531;exitY=0;exitDx=0;exitDy=0;exitPerimeter=0;entryX=0.565;entryY=1.001;entryDx=0;entryDy=0;entryPerimeter=0;" edge="1" parent="1" source="ehESmXix6-o7HZ08u8BZ-108" target="ehESmXix6-o7HZ08u8BZ-239">
          <mxGeometry width="50" height="50" relative="1" as="geometry">
            <mxPoint x="150" y="860" as="sourcePoint" />
            <mxPoint x="200" y="810" as="targetPoint" />
          </mxGeometry>
        </mxCell>
        <mxCell id="ehESmXix6-o7HZ08u8BZ-115" value="" style="endArrow=none;html=1;rounded=0;exitX=0.568;exitY=-0.017;exitDx=0;exitDy=0;exitPerimeter=0;entryX=0;entryY=0;entryDx=0;entryDy=0;" edge="1" parent="1" source="ehESmXix6-o7HZ08u8BZ-8" target="ehESmXix6-o7HZ08u8BZ-120">
          <mxGeometry width="50" height="50" relative="1" as="geometry">
            <mxPoint x="150" y="1240" as="sourcePoint" />
            <mxPoint x="200" y="1190" as="targetPoint" />
          </mxGeometry>
        </mxCell>
        <mxCell id="ehESmXix6-o7HZ08u8BZ-120" value="(1,1)" style="text;html=1;strokeColor=none;fillColor=none;align=center;verticalAlign=middle;whiteSpace=wrap;rounded=0;" vertex="1" parent="1">
          <mxGeometry x="200" y="1160" width="60" height="30" as="geometry" />
        </mxCell>
        <mxCell id="ehESmXix6-o7HZ08u8BZ-121" value="(1,1)" style="text;html=1;strokeColor=none;fillColor=none;align=center;verticalAlign=middle;whiteSpace=wrap;rounded=0;" vertex="1" parent="1">
          <mxGeometry x="200" y="1290" width="60" height="30" as="geometry" />
        </mxCell>
        <mxCell id="ehESmXix6-o7HZ08u8BZ-122" value="ITEM_ESTOQUE_PRODUTO" style="swimlane;fontStyle=0;childLayout=stackLayout;horizontal=1;startSize=30;horizontalStack=0;resizeParent=1;resizeParentMax=0;resizeLast=0;collapsible=1;marginBottom=0;whiteSpace=wrap;html=1;fillColor=#ffe6cc;strokeColor=#d79b00;" vertex="1" parent="1">
          <mxGeometry x="520" y="1320" width="240" height="120" as="geometry" />
        </mxCell>
        <mxCell id="ehESmXix6-o7HZ08u8BZ-125" value="COD_ESTOQUE" style="text;strokeColor=none;fillColor=none;align=left;verticalAlign=middle;spacingLeft=4;spacingRight=4;overflow=hidden;points=[[0,0.5],[1,0.5]];portConstraint=eastwest;rotatable=0;whiteSpace=wrap;html=1;" vertex="1" parent="ehESmXix6-o7HZ08u8BZ-122">
          <mxGeometry y="30" width="240" height="30" as="geometry" />
        </mxCell>
        <mxCell id="ehESmXix6-o7HZ08u8BZ-124" value="COD_PRODUTO" style="text;strokeColor=none;fillColor=none;align=left;verticalAlign=middle;spacingLeft=4;spacingRight=4;overflow=hidden;points=[[0,0.5],[1,0.5]];portConstraint=eastwest;rotatable=0;whiteSpace=wrap;html=1;" vertex="1" parent="ehESmXix6-o7HZ08u8BZ-122">
          <mxGeometry y="60" width="240" height="30" as="geometry" />
        </mxCell>
        <mxCell id="ehESmXix6-o7HZ08u8BZ-126" value="QTD_PRODUTO" style="text;strokeColor=none;fillColor=none;align=left;verticalAlign=middle;spacingLeft=4;spacingRight=4;overflow=hidden;points=[[0,0.5],[1,0.5]];portConstraint=eastwest;rotatable=0;whiteSpace=wrap;html=1;" vertex="1" parent="ehESmXix6-o7HZ08u8BZ-122">
          <mxGeometry y="90" width="240" height="30" as="geometry" />
        </mxCell>
        <mxCell id="ehESmXix6-o7HZ08u8BZ-128" value="" style="endArrow=none;html=1;rounded=0;exitX=0;exitY=1;exitDx=0;exitDy=0;entryX=1;entryY=1;entryDx=0;entryDy=0;" edge="1" parent="1" source="ehESmXix6-o7HZ08u8BZ-130" target="ehESmXix6-o7HZ08u8BZ-131">
          <mxGeometry width="50" height="50" relative="1" as="geometry">
            <mxPoint x="260" y="1430" as="sourcePoint" />
            <mxPoint x="520" y="1430" as="targetPoint" />
          </mxGeometry>
        </mxCell>
        <mxCell id="ehESmXix6-o7HZ08u8BZ-129" value="" style="endArrow=none;html=1;rounded=0;exitX=0.5;exitY=0;exitDx=0;exitDy=0;entryX=0.213;entryY=1.002;entryDx=0;entryDy=0;entryPerimeter=0;" edge="1" parent="1" source="ehESmXix6-o7HZ08u8BZ-122" target="ehESmXix6-o7HZ08u8BZ-55">
          <mxGeometry width="50" height="50" relative="1" as="geometry">
            <mxPoint x="760" y="1430" as="sourcePoint" />
            <mxPoint x="640" y="1119" as="targetPoint" />
            <Array as="points" />
          </mxGeometry>
        </mxCell>
        <mxCell id="ehESmXix6-o7HZ08u8BZ-130" value="(1,1)" style="text;html=1;strokeColor=none;fillColor=none;align=center;verticalAlign=middle;whiteSpace=wrap;rounded=0;" vertex="1" parent="1">
          <mxGeometry x="260" y="1320" width="60" height="30" as="geometry" />
        </mxCell>
        <mxCell id="ehESmXix6-o7HZ08u8BZ-131" value="(1,1)" style="text;html=1;strokeColor=none;fillColor=none;align=center;verticalAlign=middle;whiteSpace=wrap;rounded=0;" vertex="1" parent="1">
          <mxGeometry x="460" y="1320" width="60" height="30" as="geometry" />
        </mxCell>
        <mxCell id="ehESmXix6-o7HZ08u8BZ-132" value="(1,n)" style="text;html=1;strokeColor=none;fillColor=none;align=center;verticalAlign=middle;whiteSpace=wrap;rounded=0;" vertex="1" parent="1">
          <mxGeometry x="645" y="1290" width="60" height="30" as="geometry" />
        </mxCell>
        <mxCell id="ehESmXix6-o7HZ08u8BZ-133" value="(1,1)" style="text;html=1;strokeColor=none;fillColor=none;align=center;verticalAlign=middle;whiteSpace=wrap;rounded=0;" vertex="1" parent="1">
          <mxGeometry x="640" y="1090" width="60" height="30" as="geometry" />
        </mxCell>
        <mxCell id="ehESmXix6-o7HZ08u8BZ-134" value="" style="endArrow=none;html=1;rounded=0;exitX=1.009;exitY=0.028;exitDx=0;exitDy=0;exitPerimeter=0;" edge="1" parent="1" source="ehESmXix6-o7HZ08u8BZ-136">
          <mxGeometry width="50" height="50" relative="1" as="geometry">
            <mxPoint y="1430" as="sourcePoint" />
            <mxPoint x="120" y="1430" as="targetPoint" />
          </mxGeometry>
        </mxCell>
        <mxCell id="ehESmXix6-o7HZ08u8BZ-135" value="TIPO_PRODUTO" style="swimlane;fontStyle=0;childLayout=stackLayout;horizontal=1;startSize=30;horizontalStack=0;resizeParent=1;resizeParentMax=0;resizeLast=0;collapsible=1;marginBottom=0;whiteSpace=wrap;html=1;fillColor=#dae8fc;strokeColor=#6c8ebf;" vertex="1" parent="1">
          <mxGeometry x="-220" y="1400" width="140" height="90" as="geometry" />
        </mxCell>
        <mxCell id="ehESmXix6-o7HZ08u8BZ-136" value="COD_TIPO_PRODUTO" style="text;strokeColor=none;fillColor=none;align=left;verticalAlign=middle;spacingLeft=4;spacingRight=4;overflow=hidden;points=[[0,0.5],[1,0.5]];portConstraint=eastwest;rotatable=0;whiteSpace=wrap;html=1;" vertex="1" parent="ehESmXix6-o7HZ08u8BZ-135">
          <mxGeometry y="30" width="140" height="30" as="geometry" />
        </mxCell>
        <mxCell id="ehESmXix6-o7HZ08u8BZ-137" value="DES_TIPO" style="text;strokeColor=none;fillColor=none;align=left;verticalAlign=middle;spacingLeft=4;spacingRight=4;overflow=hidden;points=[[0,0.5],[1,0.5]];portConstraint=eastwest;rotatable=0;whiteSpace=wrap;html=1;" vertex="1" parent="ehESmXix6-o7HZ08u8BZ-135">
          <mxGeometry y="60" width="140" height="30" as="geometry" />
        </mxCell>
        <mxCell id="ehESmXix6-o7HZ08u8BZ-139" value="(1,1)" style="text;html=1;strokeColor=none;fillColor=none;align=center;verticalAlign=middle;whiteSpace=wrap;rounded=0;" vertex="1" parent="1">
          <mxGeometry x="-80" y="1400" width="60" height="30" as="geometry" />
        </mxCell>
        <mxCell id="ehESmXix6-o7HZ08u8BZ-140" value="(1,n)" style="text;html=1;strokeColor=none;fillColor=none;align=center;verticalAlign=middle;whiteSpace=wrap;rounded=0;" vertex="1" parent="1">
          <mxGeometry x="60" y="1400" width="60" height="30" as="geometry" />
        </mxCell>
        <mxCell id="ehESmXix6-o7HZ08u8BZ-141" value="FORNECEDOR_LOJA" style="swimlane;fontStyle=0;childLayout=stackLayout;horizontal=1;startSize=30;horizontalStack=0;resizeParent=1;resizeParentMax=0;resizeLast=0;collapsible=1;marginBottom=0;whiteSpace=wrap;html=1;fillColor=#f8cecc;strokeColor=#b85450;" vertex="1" parent="1">
          <mxGeometry x="1192.5" y="770" width="235" height="90" as="geometry" />
        </mxCell>
        <mxCell id="ehESmXix6-o7HZ08u8BZ-143" value="COD_LOJA" style="text;strokeColor=none;fillColor=none;align=left;verticalAlign=middle;spacingLeft=4;spacingRight=4;overflow=hidden;points=[[0,0.5],[1,0.5]];portConstraint=eastwest;rotatable=0;whiteSpace=wrap;html=1;" vertex="1" parent="ehESmXix6-o7HZ08u8BZ-141">
          <mxGeometry y="30" width="235" height="30" as="geometry" />
        </mxCell>
        <mxCell id="ehESmXix6-o7HZ08u8BZ-144" value="COD_FORNECEDOR" style="text;strokeColor=none;fillColor=none;align=left;verticalAlign=middle;spacingLeft=4;spacingRight=4;overflow=hidden;points=[[0,0.5],[1,0.5]];portConstraint=eastwest;rotatable=0;whiteSpace=wrap;html=1;" vertex="1" parent="ehESmXix6-o7HZ08u8BZ-141">
          <mxGeometry y="60" width="235" height="30" as="geometry" />
        </mxCell>
        <mxCell id="ehESmXix6-o7HZ08u8BZ-149" value="" style="endArrow=none;html=1;rounded=0;exitX=0.75;exitY=0;exitDx=0;exitDy=0;" edge="1" parent="1" source="ehESmXix6-o7HZ08u8BZ-38">
          <mxGeometry width="50" height="50" relative="1" as="geometry">
            <mxPoint x="840" y="1620" as="sourcePoint" />
            <mxPoint x="1350" y="860" as="targetPoint" />
            <Array as="points" />
          </mxGeometry>
        </mxCell>
        <mxCell id="ehESmXix6-o7HZ08u8BZ-150" value="(1,n)" style="text;html=1;strokeColor=none;fillColor=none;align=center;verticalAlign=middle;whiteSpace=wrap;rounded=0;" vertex="1" parent="1">
          <mxGeometry x="1352.5" y="860" width="60" height="30" as="geometry" />
        </mxCell>
        <mxCell id="ehESmXix6-o7HZ08u8BZ-151" value="" style="endArrow=none;html=1;rounded=0;entryX=0;entryY=1;entryDx=0;entryDy=0;exitX=0.5;exitY=0;exitDx=0;exitDy=0;" edge="1" parent="1" source="ehESmXix6-o7HZ08u8BZ-141" target="ehESmXix6-o7HZ08u8BZ-153">
          <mxGeometry width="50" height="50" relative="1" as="geometry">
            <mxPoint x="980" y="1160" as="sourcePoint" />
            <mxPoint x="764.2000000000003" y="690.9899999999998" as="targetPoint" />
            <Array as="points">
              <mxPoint x="1310" y="691" />
              <mxPoint x="840" y="690" />
              <mxPoint x="840" y="660" />
            </Array>
          </mxGeometry>
        </mxCell>
        <mxCell id="ehESmXix6-o7HZ08u8BZ-152" value="(1,n)" style="text;html=1;strokeColor=none;fillColor=none;align=center;verticalAlign=middle;whiteSpace=wrap;rounded=0;" vertex="1" parent="1">
          <mxGeometry x="1312.5" y="740" width="60" height="30" as="geometry" />
        </mxCell>
        <mxCell id="ehESmXix6-o7HZ08u8BZ-153" value="(1,1 )" style="text;html=1;strokeColor=none;fillColor=none;align=center;verticalAlign=middle;whiteSpace=wrap;rounded=0;" vertex="1" parent="1">
          <mxGeometry x="760" y="630" width="60" height="30" as="geometry" />
        </mxCell>
        <mxCell id="ehESmXix6-o7HZ08u8BZ-154" value="ENDERECO" style="swimlane;fontStyle=0;childLayout=stackLayout;horizontal=1;startSize=30;horizontalStack=0;resizeParent=1;resizeParentMax=0;resizeLast=0;collapsible=1;marginBottom=0;whiteSpace=wrap;html=1;fillColor=#dae8fc;strokeColor=#6c8ebf;" vertex="1" parent="1">
          <mxGeometry x="-600" width="140" height="210" as="geometry" />
        </mxCell>
        <mxCell id="ehESmXix6-o7HZ08u8BZ-155" value="COD_ENDERECO" style="text;strokeColor=none;fillColor=none;align=left;verticalAlign=middle;spacingLeft=4;spacingRight=4;overflow=hidden;points=[[0,0.5],[1,0.5]];portConstraint=eastwest;rotatable=0;whiteSpace=wrap;html=1;" vertex="1" parent="ehESmXix6-o7HZ08u8BZ-154">
          <mxGeometry y="30" width="140" height="30" as="geometry" />
        </mxCell>
        <mxCell id="ehESmXix6-o7HZ08u8BZ-156" value="COD_RUA" style="text;strokeColor=none;fillColor=none;align=left;verticalAlign=middle;spacingLeft=4;spacingRight=4;overflow=hidden;points=[[0,0.5],[1,0.5]];portConstraint=eastwest;rotatable=0;whiteSpace=wrap;html=1;" vertex="1" parent="ehESmXix6-o7HZ08u8BZ-154">
          <mxGeometry y="60" width="140" height="30" as="geometry" />
        </mxCell>
        <mxCell id="ehESmXix6-o7HZ08u8BZ-157" value="NUM_ENDERECO" style="text;strokeColor=none;fillColor=none;align=left;verticalAlign=middle;spacingLeft=4;spacingRight=4;overflow=hidden;points=[[0,0.5],[1,0.5]];portConstraint=eastwest;rotatable=0;whiteSpace=wrap;html=1;" vertex="1" parent="ehESmXix6-o7HZ08u8BZ-154">
          <mxGeometry y="90" width="140" height="30" as="geometry" />
        </mxCell>
        <mxCell id="ehESmXix6-o7HZ08u8BZ-158" value="COD_BAIRRO" style="text;strokeColor=none;fillColor=none;align=left;verticalAlign=middle;spacingLeft=4;spacingRight=4;overflow=hidden;points=[[0,0.5],[1,0.5]];portConstraint=eastwest;rotatable=0;whiteSpace=wrap;html=1;" vertex="1" parent="ehESmXix6-o7HZ08u8BZ-154">
          <mxGeometry y="120" width="140" height="30" as="geometry" />
        </mxCell>
        <mxCell id="ehESmXix6-o7HZ08u8BZ-159" value="COD_CIDADE" style="text;strokeColor=none;fillColor=none;align=left;verticalAlign=middle;spacingLeft=4;spacingRight=4;overflow=hidden;points=[[0,0.5],[1,0.5]];portConstraint=eastwest;rotatable=0;whiteSpace=wrap;html=1;" vertex="1" parent="ehESmXix6-o7HZ08u8BZ-154">
          <mxGeometry y="150" width="140" height="30" as="geometry" />
        </mxCell>
        <mxCell id="ehESmXix6-o7HZ08u8BZ-160" value="CEP_ENDERECO" style="text;strokeColor=none;fillColor=none;align=left;verticalAlign=middle;spacingLeft=4;spacingRight=4;overflow=hidden;points=[[0,0.5],[1,0.5]];portConstraint=eastwest;rotatable=0;whiteSpace=wrap;html=1;" vertex="1" parent="ehESmXix6-o7HZ08u8BZ-154">
          <mxGeometry y="180" width="140" height="30" as="geometry" />
        </mxCell>
        <mxCell id="ehESmXix6-o7HZ08u8BZ-162" value="" style="endArrow=none;html=1;rounded=0;entryX=0.134;entryY=1.048;entryDx=0;entryDy=0;entryPerimeter=0;exitX=0.191;exitY=-0.022;exitDx=0;exitDy=0;exitPerimeter=0;" edge="1" parent="1" source="ehESmXix6-o7HZ08u8BZ-51" target="ehESmXix6-o7HZ08u8BZ-30">
          <mxGeometry width="50" height="50" relative="1" as="geometry">
            <mxPoint x="640" y="930" as="sourcePoint" />
            <mxPoint x="638.3400000000001" y="721.5899999999997" as="targetPoint" />
          </mxGeometry>
        </mxCell>
        <mxCell id="ehESmXix6-o7HZ08u8BZ-167" value="" style="endArrow=none;html=1;rounded=0;entryX=-0.009;entryY=0.013;entryDx=0;entryDy=0;entryPerimeter=0;" edge="1" parent="1" target="ehESmXix6-o7HZ08u8BZ-15">
          <mxGeometry width="50" height="50" relative="1" as="geometry">
            <mxPoint x="-460" y="200" as="sourcePoint" />
            <mxPoint x="-410" y="150" as="targetPoint" />
            <Array as="points">
              <mxPoint x="-360" y="200" />
              <mxPoint x="-360" y="600" />
            </Array>
          </mxGeometry>
        </mxCell>
        <mxCell id="ehESmXix6-o7HZ08u8BZ-168" value="" style="endArrow=none;html=1;rounded=0;entryX=0;entryY=1;entryDx=0;entryDy=0;exitX=0.286;exitY=0;exitDx=0;exitDy=0;exitPerimeter=0;" edge="1" parent="1" source="ehESmXix6-o7HZ08u8BZ-154" target="ehESmXix6-o7HZ08u8BZ-169">
          <mxGeometry width="50" height="50" relative="1" as="geometry">
            <mxPoint x="-560" y="-10" as="sourcePoint" />
            <mxPoint x="699" y="169" as="targetPoint" />
            <Array as="points">
              <mxPoint x="-560" y="-280" />
              <mxPoint x="700" y="-280" />
            </Array>
          </mxGeometry>
        </mxCell>
        <mxCell id="ehESmXix6-o7HZ08u8BZ-169" value="(1,1)" style="text;html=1;strokeColor=none;fillColor=none;align=center;verticalAlign=middle;whiteSpace=wrap;rounded=0;" vertex="1" parent="1">
          <mxGeometry x="700" y="540" width="60" height="30" as="geometry" />
        </mxCell>
        <mxCell id="ehESmXix6-o7HZ08u8BZ-170" value="" style="endArrow=none;html=1;rounded=0;entryX=0.5;entryY=0;entryDx=0;entryDy=0;" edge="1" parent="1" target="ehESmXix6-o7HZ08u8BZ-64">
          <mxGeometry width="50" height="50" relative="1" as="geometry">
            <mxPoint x="-520" as="sourcePoint" />
            <mxPoint x="-470" y="-50" as="targetPoint" />
            <Array as="points">
              <mxPoint x="-520" y="-170" />
              <mxPoint x="415" y="-170" />
            </Array>
          </mxGeometry>
        </mxCell>
        <mxCell id="ehESmXix6-o7HZ08u8BZ-171" value="(1,1)" style="text;html=1;strokeColor=none;fillColor=none;align=center;verticalAlign=middle;whiteSpace=wrap;rounded=0;" vertex="1" parent="1">
          <mxGeometry x="-620" y="-30" width="60" height="30" as="geometry" />
        </mxCell>
        <mxCell id="ehESmXix6-o7HZ08u8BZ-174" value="(1,1)" style="text;html=1;strokeColor=none;fillColor=none;align=center;verticalAlign=middle;whiteSpace=wrap;rounded=0;" vertex="1" parent="1">
          <mxGeometry x="-520" y="-30" width="60" height="30" as="geometry" />
        </mxCell>
        <mxCell id="ehESmXix6-o7HZ08u8BZ-177" value="(1,1)" style="text;html=1;strokeColor=none;fillColor=none;align=center;verticalAlign=middle;whiteSpace=wrap;rounded=0;" vertex="1" parent="1">
          <mxGeometry x="-460" y="170" width="60" height="30" as="geometry" />
        </mxCell>
        <mxCell id="ehESmXix6-o7HZ08u8BZ-178" value="(0,n)" style="text;html=1;strokeColor=none;fillColor=none;align=center;verticalAlign=middle;whiteSpace=wrap;rounded=0;" vertex="1" parent="1">
          <mxGeometry x="-340" y="570" width="60" height="30" as="geometry" />
        </mxCell>
        <mxCell id="ehESmXix6-o7HZ08u8BZ-180" value="" style="endArrow=none;html=1;rounded=0;exitX=-0.003;exitY=0.669;exitDx=0;exitDy=0;entryX=0.265;entryY=1.033;entryDx=0;entryDy=0;entryPerimeter=0;exitPerimeter=0;" edge="1" parent="1" source="ehESmXix6-o7HZ08u8BZ-41" target="ehESmXix6-o7HZ08u8BZ-160">
          <mxGeometry width="50" height="50" relative="1" as="geometry">
            <mxPoint x="1240" y="1825" as="sourcePoint" />
            <mxPoint x="-560" y="210" as="targetPoint" />
            <Array as="points">
              <mxPoint x="1150" y="1740" />
              <mxPoint x="1150" y="1810" />
              <mxPoint x="-560" y="1810" />
            </Array>
          </mxGeometry>
        </mxCell>
        <mxCell id="ehESmXix6-o7HZ08u8BZ-181" value="(1,1)" style="text;html=1;strokeColor=none;fillColor=none;align=center;verticalAlign=middle;whiteSpace=wrap;rounded=0;" vertex="1" parent="1">
          <mxGeometry x="-560" y="210" width="60" height="30" as="geometry" />
        </mxCell>
        <mxCell id="ehESmXix6-o7HZ08u8BZ-182" value="(1,1)" style="text;html=1;strokeColor=none;fillColor=none;align=center;verticalAlign=middle;whiteSpace=wrap;rounded=0;" vertex="1" parent="1">
          <mxGeometry x="1180" y="1740" width="60" height="30" as="geometry" />
        </mxCell>
        <mxCell id="ehESmXix6-o7HZ08u8BZ-183" value="(0,n)" style="text;html=1;strokeColor=none;fillColor=none;align=center;verticalAlign=middle;whiteSpace=wrap;rounded=0;" vertex="1" parent="1">
          <mxGeometry x="355" y="-70" width="60" height="30" as="geometry" />
        </mxCell>
        <mxCell id="ehESmXix6-o7HZ08u8BZ-188" value="FORNECEDOR_PRODUTO" style="swimlane;fontStyle=0;childLayout=stackLayout;horizontal=1;startSize=30;horizontalStack=0;resizeParent=1;resizeParentMax=0;resizeLast=0;collapsible=1;marginBottom=0;whiteSpace=wrap;html=1;fillColor=#f8cecc;strokeColor=#b85450;" vertex="1" parent="1">
          <mxGeometry x="560" y="1660" width="200" height="90" as="geometry" />
        </mxCell>
        <mxCell id="ehESmXix6-o7HZ08u8BZ-190" value="COD_PRODUTO" style="text;strokeColor=none;fillColor=none;align=left;verticalAlign=middle;spacingLeft=4;spacingRight=4;overflow=hidden;points=[[0,0.5],[1,0.5]];portConstraint=eastwest;rotatable=0;whiteSpace=wrap;html=1;" vertex="1" parent="ehESmXix6-o7HZ08u8BZ-188">
          <mxGeometry y="30" width="200" height="30" as="geometry" />
        </mxCell>
        <mxCell id="ehESmXix6-o7HZ08u8BZ-191" value="COD_FORNECEDOR" style="text;strokeColor=none;fillColor=none;align=left;verticalAlign=middle;spacingLeft=4;spacingRight=4;overflow=hidden;points=[[0,0.5],[1,0.5]];portConstraint=eastwest;rotatable=0;whiteSpace=wrap;html=1;" vertex="1" parent="ehESmXix6-o7HZ08u8BZ-188">
          <mxGeometry y="60" width="200" height="30" as="geometry" />
        </mxCell>
        <mxCell id="ehESmXix6-o7HZ08u8BZ-192" value="" style="endArrow=none;html=1;rounded=0;exitX=1;exitY=1;exitDx=0;exitDy=0;" edge="1" parent="1" source="ehESmXix6-o7HZ08u8BZ-193">
          <mxGeometry width="50" height="50" relative="1" as="geometry">
            <mxPoint x="150" y="1520" as="sourcePoint" />
            <mxPoint x="200" y="1470" as="targetPoint" />
            <Array as="points">
              <mxPoint x="200" y="1690" />
            </Array>
          </mxGeometry>
        </mxCell>
        <mxCell id="ehESmXix6-o7HZ08u8BZ-193" value="(1,1 )" style="text;html=1;strokeColor=none;fillColor=none;align=center;verticalAlign=middle;whiteSpace=wrap;rounded=0;" vertex="1" parent="1">
          <mxGeometry x="500" y="1660" width="60" height="30" as="geometry" />
        </mxCell>
        <mxCell id="ehESmXix6-o7HZ08u8BZ-194" value="" style="endArrow=none;html=1;rounded=0;entryX=1;entryY=1;entryDx=0;entryDy=0;" edge="1" parent="1" target="ehESmXix6-o7HZ08u8BZ-196">
          <mxGeometry width="50" height="50" relative="1" as="geometry">
            <mxPoint x="760" y="1690" as="sourcePoint" />
            <mxPoint x="810" y="1640" as="targetPoint" />
          </mxGeometry>
        </mxCell>
        <mxCell id="ehESmXix6-o7HZ08u8BZ-196" value="(1,1)" style="text;html=1;strokeColor=none;fillColor=none;align=center;verticalAlign=middle;whiteSpace=wrap;rounded=0;" vertex="1" parent="1">
          <mxGeometry x="1180" y="1660" width="60" height="30" as="geometry" />
        </mxCell>
        <mxCell id="ehESmXix6-o7HZ08u8BZ-197" value="COMPRA" style="swimlane;fontStyle=0;childLayout=stackLayout;horizontal=1;startSize=30;horizontalStack=0;resizeParent=1;resizeParentMax=0;resizeLast=0;collapsible=1;marginBottom=0;whiteSpace=wrap;html=1;fillColor=#fff2cc;strokeColor=#d6b656;" vertex="1" parent="1">
          <mxGeometry x="890" y="1120" width="190" height="210" as="geometry" />
        </mxCell>
        <mxCell id="ehESmXix6-o7HZ08u8BZ-198" value="COD_COMPRA" style="text;strokeColor=none;fillColor=none;align=left;verticalAlign=middle;spacingLeft=4;spacingRight=4;overflow=hidden;points=[[0,0.5],[1,0.5]];portConstraint=eastwest;rotatable=0;whiteSpace=wrap;html=1;" vertex="1" parent="ehESmXix6-o7HZ08u8BZ-197">
          <mxGeometry y="30" width="190" height="30" as="geometry" />
        </mxCell>
        <mxCell id="ehESmXix6-o7HZ08u8BZ-199" value="COD_LOJA" style="text;strokeColor=none;fillColor=none;align=left;verticalAlign=middle;spacingLeft=4;spacingRight=4;overflow=hidden;points=[[0,0.5],[1,0.5]];portConstraint=eastwest;rotatable=0;whiteSpace=wrap;html=1;" vertex="1" parent="ehESmXix6-o7HZ08u8BZ-197">
          <mxGeometry y="60" width="190" height="30" as="geometry" />
        </mxCell>
        <mxCell id="ehESmXix6-o7HZ08u8BZ-200" value="COD_FORNECEDOR" style="text;strokeColor=none;fillColor=none;align=left;verticalAlign=middle;spacingLeft=4;spacingRight=4;overflow=hidden;points=[[0,0.5],[1,0.5]];portConstraint=eastwest;rotatable=0;whiteSpace=wrap;html=1;" vertex="1" parent="ehESmXix6-o7HZ08u8BZ-197">
          <mxGeometry y="90" width="190" height="30" as="geometry" />
        </mxCell>
        <mxCell id="ehESmXix6-o7HZ08u8BZ-205" value="DTA_COMPRA" style="text;strokeColor=none;fillColor=none;align=left;verticalAlign=middle;spacingLeft=4;spacingRight=4;overflow=hidden;points=[[0,0.5],[1,0.5]];portConstraint=eastwest;rotatable=0;whiteSpace=wrap;html=1;" vertex="1" parent="ehESmXix6-o7HZ08u8BZ-197">
          <mxGeometry y="120" width="190" height="30" as="geometry" />
        </mxCell>
        <mxCell id="ehESmXix6-o7HZ08u8BZ-263" value="COD_FORMA_PAGAMENTO" style="text;strokeColor=none;fillColor=none;align=left;verticalAlign=middle;spacingLeft=4;spacingRight=4;overflow=hidden;points=[[0,0.5],[1,0.5]];portConstraint=eastwest;rotatable=0;whiteSpace=wrap;html=1;" vertex="1" parent="ehESmXix6-o7HZ08u8BZ-197">
          <mxGeometry y="150" width="190" height="30" as="geometry" />
        </mxCell>
        <mxCell id="ehESmXix6-o7HZ08u8BZ-206" value="VAL_COMPRA" style="text;strokeColor=none;fillColor=none;align=left;verticalAlign=middle;spacingLeft=4;spacingRight=4;overflow=hidden;points=[[0,0.5],[1,0.5]];portConstraint=eastwest;rotatable=0;whiteSpace=wrap;html=1;" vertex="1" parent="ehESmXix6-o7HZ08u8BZ-197">
          <mxGeometry y="180" width="190" height="30" as="geometry" />
        </mxCell>
        <mxCell id="ehESmXix6-o7HZ08u8BZ-201" value="" style="endArrow=none;html=1;rounded=0;exitX=0;exitY=1;exitDx=0;exitDy=0;entryX=0.713;entryY=1.06;entryDx=0;entryDy=0;entryPerimeter=0;" edge="1" parent="1" source="ehESmXix6-o7HZ08u8BZ-203" target="ehESmXix6-o7HZ08u8BZ-30">
          <mxGeometry width="50" height="50" relative="1" as="geometry">
            <mxPoint x="670" y="770" as="sourcePoint" />
            <mxPoint x="720" y="720" as="targetPoint" />
            <Array as="points">
              <mxPoint x="960" y="800" />
              <mxPoint x="720" y="800" />
            </Array>
          </mxGeometry>
        </mxCell>
        <mxCell id="ehESmXix6-o7HZ08u8BZ-202" value="(1,1)" style="text;html=1;strokeColor=none;fillColor=none;align=center;verticalAlign=middle;whiteSpace=wrap;rounded=0;" vertex="1" parent="1">
          <mxGeometry x="720" y="690" width="60" height="30" as="geometry" />
        </mxCell>
        <mxCell id="ehESmXix6-o7HZ08u8BZ-203" value="(1,n)" style="text;html=1;strokeColor=none;fillColor=none;align=center;verticalAlign=middle;whiteSpace=wrap;rounded=0;" vertex="1" parent="1">
          <mxGeometry x="960" y="1090" width="60" height="30" as="geometry" />
        </mxCell>
        <mxCell id="ehESmXix6-o7HZ08u8BZ-208" value="ITEM_COMPRA_PRODUTO" style="swimlane;fontStyle=0;childLayout=stackLayout;horizontal=1;startSize=30;horizontalStack=0;resizeParent=1;resizeParentMax=0;resizeLast=0;collapsible=1;marginBottom=0;whiteSpace=wrap;html=1;fillColor=#fff2cc;strokeColor=#d6b656;" vertex="1" parent="1">
          <mxGeometry x="860" y="1440" width="220" height="150" as="geometry" />
        </mxCell>
        <mxCell id="ehESmXix6-o7HZ08u8BZ-210" value="COD_COMPRA" style="text;strokeColor=none;fillColor=none;align=left;verticalAlign=middle;spacingLeft=4;spacingRight=4;overflow=hidden;points=[[0,0.5],[1,0.5]];portConstraint=eastwest;rotatable=0;whiteSpace=wrap;html=1;" vertex="1" parent="ehESmXix6-o7HZ08u8BZ-208">
          <mxGeometry y="30" width="220" height="30" as="geometry" />
        </mxCell>
        <mxCell id="ehESmXix6-o7HZ08u8BZ-211" value="COD_PRODUTO" style="text;strokeColor=none;fillColor=none;align=left;verticalAlign=middle;spacingLeft=4;spacingRight=4;overflow=hidden;points=[[0,0.5],[1,0.5]];portConstraint=eastwest;rotatable=0;whiteSpace=wrap;html=1;" vertex="1" parent="ehESmXix6-o7HZ08u8BZ-208">
          <mxGeometry y="60" width="220" height="30" as="geometry" />
        </mxCell>
        <mxCell id="ehESmXix6-o7HZ08u8BZ-212" value="QTD_COMPRA" style="text;strokeColor=none;fillColor=none;align=left;verticalAlign=middle;spacingLeft=4;spacingRight=4;overflow=hidden;points=[[0,0.5],[1,0.5]];portConstraint=eastwest;rotatable=0;whiteSpace=wrap;html=1;" vertex="1" parent="ehESmXix6-o7HZ08u8BZ-208">
          <mxGeometry y="90" width="220" height="30" as="geometry" />
        </mxCell>
        <mxCell id="ehESmXix6-o7HZ08u8BZ-213" value="VAL_QTD_PRODUTO_COMPRA&amp;nbsp;" style="text;strokeColor=none;fillColor=none;align=left;verticalAlign=middle;spacingLeft=4;spacingRight=4;overflow=hidden;points=[[0,0.5],[1,0.5]];portConstraint=eastwest;rotatable=0;whiteSpace=wrap;html=1;" vertex="1" parent="ehESmXix6-o7HZ08u8BZ-208">
          <mxGeometry y="120" width="220" height="30" as="geometry" />
        </mxCell>
        <mxCell id="ehESmXix6-o7HZ08u8BZ-215" value="" style="endArrow=none;html=1;rounded=0;entryX=0;entryY=0;entryDx=0;entryDy=0;" edge="1" parent="1" target="ehESmXix6-o7HZ08u8BZ-216">
          <mxGeometry width="50" height="50" relative="1" as="geometry">
            <mxPoint x="960" y="1440" as="sourcePoint" />
            <mxPoint x="960" y="1300" as="targetPoint" />
          </mxGeometry>
        </mxCell>
        <mxCell id="ehESmXix6-o7HZ08u8BZ-216" value="(1,1 )" style="text;html=1;strokeColor=none;fillColor=none;align=center;verticalAlign=middle;whiteSpace=wrap;rounded=0;" vertex="1" parent="1">
          <mxGeometry x="960" y="1330" width="60" height="30" as="geometry" />
        </mxCell>
        <mxCell id="ehESmXix6-o7HZ08u8BZ-217" value="(1,n)" style="text;html=1;strokeColor=none;fillColor=none;align=center;verticalAlign=middle;whiteSpace=wrap;rounded=0;" vertex="1" parent="1">
          <mxGeometry x="960" y="1410" width="60" height="30" as="geometry" />
        </mxCell>
        <mxCell id="ehESmXix6-o7HZ08u8BZ-218" value="" style="endArrow=none;html=1;rounded=0;entryX=1;entryY=1;entryDx=0;entryDy=0;" edge="1" parent="1" target="ehESmXix6-o7HZ08u8BZ-220">
          <mxGeometry width="50" height="50" relative="1" as="geometry">
            <mxPoint x="260" y="1430" as="sourcePoint" />
            <mxPoint x="863.2999999999997" y="1470.3300000000004" as="targetPoint" />
            <Array as="points">
              <mxPoint x="380" y="1430" />
              <mxPoint x="380" y="1470" />
            </Array>
          </mxGeometry>
        </mxCell>
        <mxCell id="ehESmXix6-o7HZ08u8BZ-219" value="(1,1)" style="text;html=1;strokeColor=none;fillColor=none;align=center;verticalAlign=middle;whiteSpace=wrap;rounded=0;" vertex="1" parent="1">
          <mxGeometry x="260" y="1400" width="60" height="30" as="geometry" />
        </mxCell>
        <mxCell id="ehESmXix6-o7HZ08u8BZ-220" value="(1,1)&amp;nbsp;" style="text;html=1;strokeColor=none;fillColor=none;align=center;verticalAlign=middle;whiteSpace=wrap;rounded=0;" vertex="1" parent="1">
          <mxGeometry x="800" y="1440" width="60" height="30" as="geometry" />
        </mxCell>
        <mxCell id="ehESmXix6-o7HZ08u8BZ-221" value="" style="endArrow=none;html=1;rounded=0;entryX=0.429;entryY=0;entryDx=0;entryDy=0;entryPerimeter=0;exitX=0;exitY=0;exitDx=0;exitDy=0;" edge="1" parent="1" source="ehESmXix6-o7HZ08u8BZ-222" target="ehESmXix6-o7HZ08u8BZ-38">
          <mxGeometry width="50" height="50" relative="1" as="geometry">
            <mxPoint x="1030" y="1150" as="sourcePoint" />
            <mxPoint x="1180" y="1070" as="targetPoint" />
            <Array as="points">
              <mxPoint x="1300" y="1150" />
            </Array>
          </mxGeometry>
        </mxCell>
        <mxCell id="ehESmXix6-o7HZ08u8BZ-222" value="(1,n)" style="text;html=1;strokeColor=none;fillColor=none;align=center;verticalAlign=middle;whiteSpace=wrap;rounded=0;" vertex="1" parent="1">
          <mxGeometry x="1080" y="1150" width="60" height="30" as="geometry" />
        </mxCell>
        <mxCell id="ehESmXix6-o7HZ08u8BZ-223" value="(1,1)" style="text;html=1;strokeColor=none;fillColor=none;align=center;verticalAlign=middle;whiteSpace=wrap;rounded=0;" vertex="1" parent="1">
          <mxGeometry x="1240" y="1630" width="60" height="30" as="geometry" />
        </mxCell>
        <mxCell id="ehESmXix6-o7HZ08u8BZ-224" value="COTACAO" style="swimlane;fontStyle=0;childLayout=stackLayout;horizontal=1;startSize=30;horizontalStack=0;resizeParent=1;resizeParentMax=0;resizeLast=0;collapsible=1;marginBottom=0;whiteSpace=wrap;html=1;fillColor=#dae8fc;strokeColor=#6c8ebf;" vertex="1" parent="1">
          <mxGeometry x="1550" y="1730" width="140" height="180" as="geometry" />
        </mxCell>
        <mxCell id="ehESmXix6-o7HZ08u8BZ-225" value="COD_COTACAO" style="text;strokeColor=none;fillColor=none;align=left;verticalAlign=middle;spacingLeft=4;spacingRight=4;overflow=hidden;points=[[0,0.5],[1,0.5]];portConstraint=eastwest;rotatable=0;whiteSpace=wrap;html=1;" vertex="1" parent="ehESmXix6-o7HZ08u8BZ-224">
          <mxGeometry y="30" width="140" height="30" as="geometry" />
        </mxCell>
        <mxCell id="ehESmXix6-o7HZ08u8BZ-226" value="COD_FORNECEDOR" style="text;strokeColor=none;fillColor=none;align=left;verticalAlign=middle;spacingLeft=4;spacingRight=4;overflow=hidden;points=[[0,0.5],[1,0.5]];portConstraint=eastwest;rotatable=0;whiteSpace=wrap;html=1;" vertex="1" parent="ehESmXix6-o7HZ08u8BZ-224">
          <mxGeometry y="60" width="140" height="30" as="geometry" />
        </mxCell>
        <mxCell id="ehESmXix6-o7HZ08u8BZ-227" value="COD_PRODUTO" style="text;strokeColor=none;fillColor=none;align=left;verticalAlign=middle;spacingLeft=4;spacingRight=4;overflow=hidden;points=[[0,0.5],[1,0.5]];portConstraint=eastwest;rotatable=0;whiteSpace=wrap;html=1;" vertex="1" parent="ehESmXix6-o7HZ08u8BZ-224">
          <mxGeometry y="90" width="140" height="30" as="geometry" />
        </mxCell>
        <mxCell id="ehESmXix6-o7HZ08u8BZ-228" value="VAL_COTACAO" style="text;strokeColor=none;fillColor=none;align=left;verticalAlign=middle;spacingLeft=4;spacingRight=4;overflow=hidden;points=[[0,0.5],[1,0.5]];portConstraint=eastwest;rotatable=0;whiteSpace=wrap;html=1;" vertex="1" parent="ehESmXix6-o7HZ08u8BZ-224">
          <mxGeometry y="120" width="140" height="30" as="geometry" />
        </mxCell>
        <mxCell id="ehESmXix6-o7HZ08u8BZ-229" value="UNIDADE_MEDIDA" style="text;strokeColor=none;fillColor=none;align=left;verticalAlign=middle;spacingLeft=4;spacingRight=4;overflow=hidden;points=[[0,0.5],[1,0.5]];portConstraint=eastwest;rotatable=0;whiteSpace=wrap;html=1;" vertex="1" parent="ehESmXix6-o7HZ08u8BZ-224">
          <mxGeometry y="150" width="140" height="30" as="geometry" />
        </mxCell>
        <mxCell id="ehESmXix6-o7HZ08u8BZ-230" value="" style="endArrow=none;html=1;rounded=0;entryX=0.014;entryY=0;entryDx=0;entryDy=0;entryPerimeter=0;exitX=0;exitY=1;exitDx=0;exitDy=0;" edge="1" parent="1" source="ehESmXix6-o7HZ08u8BZ-231" target="ehESmXix6-o7HZ08u8BZ-225">
          <mxGeometry width="50" height="50" relative="1" as="geometry">
            <mxPoint x="1380" y="1650" as="sourcePoint" />
            <mxPoint x="1430" y="1600" as="targetPoint" />
          </mxGeometry>
        </mxCell>
        <mxCell id="ehESmXix6-o7HZ08u8BZ-231" value="(1,1)" style="text;html=1;strokeColor=none;fillColor=none;align=center;verticalAlign=middle;whiteSpace=wrap;rounded=0;" vertex="1" parent="1">
          <mxGeometry x="1380" y="1730" width="60" height="30" as="geometry" />
        </mxCell>
        <mxCell id="ehESmXix6-o7HZ08u8BZ-232" value="(1,n)" style="text;html=1;strokeColor=none;fillColor=none;align=center;verticalAlign=middle;whiteSpace=wrap;rounded=0;" vertex="1" parent="1">
          <mxGeometry x="1490" y="1730" width="60" height="30" as="geometry" />
        </mxCell>
        <mxCell id="ehESmXix6-o7HZ08u8BZ-233" value="FORMA_PAGAMENTO" style="swimlane;fontStyle=0;childLayout=stackLayout;horizontal=1;startSize=30;horizontalStack=0;resizeParent=1;resizeParentMax=0;resizeLast=0;collapsible=1;marginBottom=0;whiteSpace=wrap;html=1;fillColor=#dae8fc;strokeColor=#6c8ebf;" vertex="1" parent="1">
          <mxGeometry x="345" y="890" width="175" height="90" as="geometry" />
        </mxCell>
        <mxCell id="ehESmXix6-o7HZ08u8BZ-234" value="COD_FORMA_PAGAMENTO" style="text;strokeColor=none;fillColor=none;align=left;verticalAlign=middle;spacingLeft=4;spacingRight=4;overflow=hidden;points=[[0,0.5],[1,0.5]];portConstraint=eastwest;rotatable=0;whiteSpace=wrap;html=1;" vertex="1" parent="ehESmXix6-o7HZ08u8BZ-233">
          <mxGeometry y="30" width="175" height="30" as="geometry" />
        </mxCell>
        <mxCell id="ehESmXix6-o7HZ08u8BZ-235" value="DES_FORMA_PAGAMENTO" style="text;strokeColor=none;fillColor=none;align=left;verticalAlign=middle;spacingLeft=4;spacingRight=4;overflow=hidden;points=[[0,0.5],[1,0.5]];portConstraint=eastwest;rotatable=0;whiteSpace=wrap;html=1;" vertex="1" parent="ehESmXix6-o7HZ08u8BZ-233">
          <mxGeometry y="60" width="175" height="30" as="geometry" />
        </mxCell>
        <mxCell id="ehESmXix6-o7HZ08u8BZ-237" value="" style="endArrow=none;html=1;rounded=0;entryX=0.083;entryY=-0.002;entryDx=0;entryDy=0;entryPerimeter=0;" edge="1" parent="1" target="ehESmXix6-o7HZ08u8BZ-233">
          <mxGeometry width="50" height="50" relative="1" as="geometry">
            <mxPoint x="300" y="801" as="sourcePoint" />
            <mxPoint x="310" y="710" as="targetPoint" />
            <Array as="points">
              <mxPoint x="360" y="801" />
            </Array>
          </mxGeometry>
        </mxCell>
        <mxCell id="ehESmXix6-o7HZ08u8BZ-240" value="(1,1)" style="text;html=1;strokeColor=none;fillColor=none;align=center;verticalAlign=middle;whiteSpace=wrap;rounded=0;" vertex="1" parent="1">
          <mxGeometry x="360" y="860" width="60" height="30" as="geometry" />
        </mxCell>
        <mxCell id="ehESmXix6-o7HZ08u8BZ-241" value="(1,n)" style="text;html=1;strokeColor=none;fillColor=none;align=center;verticalAlign=middle;whiteSpace=wrap;rounded=0;" vertex="1" parent="1">
          <mxGeometry x="300" y="770" width="60" height="30" as="geometry" />
        </mxCell>
        <mxCell id="ehESmXix6-o7HZ08u8BZ-242" value="ENTREGA" style="swimlane;fontStyle=0;childLayout=stackLayout;horizontal=1;startSize=30;horizontalStack=0;resizeParent=1;resizeParentMax=0;resizeLast=0;collapsible=1;marginBottom=0;whiteSpace=wrap;html=1;fillColor=#d5e8d4;strokeColor=#82b366;" vertex="1" parent="1">
          <mxGeometry x="-65" y="150" width="230" height="210" as="geometry" />
        </mxCell>
        <mxCell id="ehESmXix6-o7HZ08u8BZ-243" value="COD_ENTREGA" style="text;strokeColor=none;fillColor=none;align=left;verticalAlign=middle;spacingLeft=4;spacingRight=4;overflow=hidden;points=[[0,0.5],[1,0.5]];portConstraint=eastwest;rotatable=0;whiteSpace=wrap;html=1;" vertex="1" parent="ehESmXix6-o7HZ08u8BZ-242">
          <mxGeometry y="30" width="230" height="30" as="geometry" />
        </mxCell>
        <mxCell id="ehESmXix6-o7HZ08u8BZ-245" value="COD_PEDIDO" style="text;strokeColor=none;fillColor=none;align=left;verticalAlign=middle;spacingLeft=4;spacingRight=4;overflow=hidden;points=[[0,0.5],[1,0.5]];portConstraint=eastwest;rotatable=0;whiteSpace=wrap;html=1;" vertex="1" parent="ehESmXix6-o7HZ08u8BZ-242">
          <mxGeometry y="60" width="230" height="30" as="geometry" />
        </mxCell>
        <mxCell id="ehESmXix6-o7HZ08u8BZ-244" value="COD_FUNCIONARIO_ENTREGADOR" style="text;strokeColor=none;fillColor=none;align=left;verticalAlign=middle;spacingLeft=4;spacingRight=4;overflow=hidden;points=[[0,0.5],[1,0.5]];portConstraint=eastwest;rotatable=0;whiteSpace=wrap;html=1;" vertex="1" parent="ehESmXix6-o7HZ08u8BZ-242">
          <mxGeometry y="90" width="230" height="30" as="geometry" />
        </mxCell>
        <mxCell id="ehESmXix6-o7HZ08u8BZ-247" value="HOR_ENTREGA" style="text;strokeColor=none;fillColor=none;align=left;verticalAlign=middle;spacingLeft=4;spacingRight=4;overflow=hidden;points=[[0,0.5],[1,0.5]];portConstraint=eastwest;rotatable=0;whiteSpace=wrap;html=1;" vertex="1" parent="ehESmXix6-o7HZ08u8BZ-242">
          <mxGeometry y="120" width="230" height="30" as="geometry" />
        </mxCell>
        <mxCell id="ehESmXix6-o7HZ08u8BZ-246" value="COD_ENDERECO" style="text;strokeColor=none;fillColor=none;align=left;verticalAlign=middle;spacingLeft=4;spacingRight=4;overflow=hidden;points=[[0,0.5],[1,0.5]];portConstraint=eastwest;rotatable=0;whiteSpace=wrap;html=1;" vertex="1" parent="ehESmXix6-o7HZ08u8BZ-242">
          <mxGeometry y="150" width="230" height="30" as="geometry" />
        </mxCell>
        <mxCell id="ehESmXix6-o7HZ08u8BZ-248" value="VAL_TAXA" style="text;strokeColor=none;fillColor=none;align=left;verticalAlign=middle;spacingLeft=4;spacingRight=4;overflow=hidden;points=[[0,0.5],[1,0.5]];portConstraint=eastwest;rotatable=0;whiteSpace=wrap;html=1;" vertex="1" parent="ehESmXix6-o7HZ08u8BZ-242">
          <mxGeometry y="180" width="230" height="30" as="geometry" />
        </mxCell>
        <mxCell id="ehESmXix6-o7HZ08u8BZ-254" value="" style="endArrow=none;html=1;rounded=0;entryX=-0.004;entryY=0.32;entryDx=0;entryDy=0;entryPerimeter=0;" edge="1" parent="1" target="ehESmXix6-o7HZ08u8BZ-86">
          <mxGeometry width="50" height="50" relative="1" as="geometry">
            <mxPoint x="120" y="150" as="sourcePoint" />
            <mxPoint x="330" y="90" as="targetPoint" />
            <Array as="points">
              <mxPoint x="120" y="90" />
            </Array>
          </mxGeometry>
        </mxCell>
        <mxCell id="ehESmXix6-o7HZ08u8BZ-255" value="" style="endArrow=none;html=1;rounded=0;exitX=0.848;exitY=1.016;exitDx=0;exitDy=0;exitPerimeter=0;" edge="1" parent="1" source="ehESmXix6-o7HZ08u8BZ-258">
          <mxGeometry width="50" height="50" relative="1" as="geometry">
            <mxPoint x="160" y="568" as="sourcePoint" />
            <mxPoint x="120" y="360" as="targetPoint" />
            <Array as="points">
              <mxPoint x="160" y="440" />
              <mxPoint x="120" y="440" />
            </Array>
          </mxGeometry>
        </mxCell>
        <mxCell id="ehESmXix6-o7HZ08u8BZ-256" value="(1,1)" style="text;html=1;strokeColor=none;fillColor=none;align=center;verticalAlign=middle;whiteSpace=wrap;rounded=0;" vertex="1" parent="1">
          <mxGeometry x="275" y="60" width="60" height="30" as="geometry" />
        </mxCell>
        <mxCell id="ehESmXix6-o7HZ08u8BZ-257" value="(1,n)" style="text;html=1;strokeColor=none;fillColor=none;align=center;verticalAlign=middle;whiteSpace=wrap;rounded=0;" vertex="1" parent="1">
          <mxGeometry x="60" y="120" width="60" height="30" as="geometry" />
        </mxCell>
        <mxCell id="ehESmXix6-o7HZ08u8BZ-258" value="(1,1)" style="text;html=1;strokeColor=none;fillColor=none;align=center;verticalAlign=middle;whiteSpace=wrap;rounded=0;" vertex="1" parent="1">
          <mxGeometry x="110" y="540" width="60" height="30" as="geometry" />
        </mxCell>
        <mxCell id="ehESmXix6-o7HZ08u8BZ-259" value="(0,1)" style="text;html=1;strokeColor=none;fillColor=none;align=center;verticalAlign=middle;whiteSpace=wrap;rounded=0;" vertex="1" parent="1">
          <mxGeometry x="60" y="360" width="60" height="30" as="geometry" />
        </mxCell>
        <mxCell id="ehESmXix6-o7HZ08u8BZ-260" value="" style="endArrow=none;html=1;rounded=0;entryX=0;entryY=0.5;entryDx=0;entryDy=0;exitX=1.001;exitY=-0.003;exitDx=0;exitDy=0;exitPerimeter=0;" edge="1" parent="1" source="ehESmXix6-o7HZ08u8BZ-155" target="ehESmXix6-o7HZ08u8BZ-246">
          <mxGeometry width="50" height="50" relative="1" as="geometry">
            <mxPoint x="-460" y="120" as="sourcePoint" />
            <mxPoint x="-410" y="70" as="targetPoint" />
            <Array as="points">
              <mxPoint x="-320" y="30" />
              <mxPoint x="-320" y="315" />
            </Array>
          </mxGeometry>
        </mxCell>
        <mxCell id="ehESmXix6-o7HZ08u8BZ-261" value="(1,1)" style="text;html=1;strokeColor=none;fillColor=none;align=center;verticalAlign=middle;whiteSpace=wrap;rounded=0;" vertex="1" parent="1">
          <mxGeometry x="-460" width="60" height="30" as="geometry" />
        </mxCell>
        <mxCell id="ehESmXix6-o7HZ08u8BZ-262" value="(0 ,n)" style="text;html=1;strokeColor=none;fillColor=none;align=center;verticalAlign=middle;whiteSpace=wrap;rounded=0;" vertex="1" parent="1">
          <mxGeometry x="-125" y="281" width="60" height="30" as="geometry" />
        </mxCell>
        <mxCell id="ehESmXix6-o7HZ08u8BZ-265" value="" style="endArrow=none;html=1;rounded=0;entryX=0;entryY=0.5;entryDx=0;entryDy=0;" edge="1" parent="1" target="ehESmXix6-o7HZ08u8BZ-263">
          <mxGeometry width="50" height="50" relative="1" as="geometry">
            <mxPoint x="520" y="920" as="sourcePoint" />
            <mxPoint x="570" y="870" as="targetPoint" />
            <Array as="points">
              <mxPoint x="800" y="920" />
              <mxPoint x="800" y="1285" />
            </Array>
          </mxGeometry>
        </mxCell>
        <mxCell id="ehESmXix6-o7HZ08u8BZ-266" value="(1,1)" style="text;html=1;strokeColor=none;fillColor=none;align=center;verticalAlign=middle;whiteSpace=wrap;rounded=0;" vertex="1" parent="1">
          <mxGeometry x="520" y="890" width="60" height="30" as="geometry" />
        </mxCell>
        <mxCell id="ehESmXix6-o7HZ08u8BZ-267" value="(1,n)" style="text;html=1;strokeColor=none;fillColor=none;align=center;verticalAlign=middle;whiteSpace=wrap;rounded=0;" vertex="1" parent="1">
          <mxGeometry x="830" y="1250" width="60" height="30" as="geometry" />
        </mxCell>
        <mxCell id="ehESmXix6-o7HZ08u8BZ-268" value="TELEFONE" style="swimlane;fontStyle=0;childLayout=stackLayout;horizontal=1;startSize=30;horizontalStack=0;resizeParent=1;resizeParentMax=0;resizeLast=0;collapsible=1;marginBottom=0;whiteSpace=wrap;html=1;fillColor=#dae8fc;strokeColor=#6c8ebf;" vertex="1" parent="1">
          <mxGeometry x="1140" y="10" width="140" height="120" as="geometry" />
        </mxCell>
        <mxCell id="ehESmXix6-o7HZ08u8BZ-269" value="COD_TELEFONE" style="text;strokeColor=none;fillColor=none;align=left;verticalAlign=middle;spacingLeft=4;spacingRight=4;overflow=hidden;points=[[0,0.5],[1,0.5]];portConstraint=eastwest;rotatable=0;whiteSpace=wrap;html=1;" vertex="1" parent="ehESmXix6-o7HZ08u8BZ-268">
          <mxGeometry y="30" width="140" height="30" as="geometry" />
        </mxCell>
        <mxCell id="yw2C3HzO3rmrH0eIrEtk-5" value="ID_COD_AREA" style="text;strokeColor=none;fillColor=none;align=left;verticalAlign=middle;spacingLeft=4;spacingRight=4;overflow=hidden;points=[[0,0.5],[1,0.5]];portConstraint=eastwest;rotatable=0;whiteSpace=wrap;html=1;" vertex="1" parent="ehESmXix6-o7HZ08u8BZ-268">
          <mxGeometry y="60" width="140" height="30" as="geometry" />
        </mxCell>
        <mxCell id="ehESmXix6-o7HZ08u8BZ-270" value="NUM_TELEFONE" style="text;strokeColor=none;fillColor=none;align=left;verticalAlign=middle;spacingLeft=4;spacingRight=4;overflow=hidden;points=[[0,0.5],[1,0.5]];portConstraint=eastwest;rotatable=0;whiteSpace=wrap;html=1;" vertex="1" parent="ehESmXix6-o7HZ08u8BZ-268">
          <mxGeometry y="90" width="140" height="30" as="geometry" />
        </mxCell>
        <mxCell id="ehESmXix6-o7HZ08u8BZ-272" value="FUNCIONARIO_TELEFONE" style="swimlane;fontStyle=0;childLayout=stackLayout;horizontal=1;startSize=30;horizontalStack=0;resizeParent=1;resizeParentMax=0;resizeLast=0;collapsible=1;marginBottom=0;whiteSpace=wrap;html=1;fillColor=#e1d5e7;strokeColor=#9673a6;" vertex="1" parent="1">
          <mxGeometry x="780" y="10" width="200" height="90" as="geometry" />
        </mxCell>
        <mxCell id="ehESmXix6-o7HZ08u8BZ-277" value="COD_FUNCIONARIO" style="text;strokeColor=none;fillColor=none;align=left;verticalAlign=middle;spacingLeft=4;spacingRight=4;overflow=hidden;points=[[0,0.5],[1,0.5]];portConstraint=eastwest;rotatable=0;whiteSpace=wrap;html=1;" vertex="1" parent="ehESmXix6-o7HZ08u8BZ-272">
          <mxGeometry y="30" width="200" height="30" as="geometry" />
        </mxCell>
        <mxCell id="ehESmXix6-o7HZ08u8BZ-274" value="COD_TELEFONE" style="text;strokeColor=none;fillColor=none;align=left;verticalAlign=middle;spacingLeft=4;spacingRight=4;overflow=hidden;points=[[0,0.5],[1,0.5]];portConstraint=eastwest;rotatable=0;whiteSpace=wrap;html=1;" vertex="1" parent="ehESmXix6-o7HZ08u8BZ-272">
          <mxGeometry y="60" width="200" height="30" as="geometry" />
        </mxCell>
        <mxCell id="ehESmXix6-o7HZ08u8BZ-278" value="" style="endArrow=none;html=1;rounded=0;" edge="1" parent="1">
          <mxGeometry width="50" height="50" relative="1" as="geometry">
            <mxPoint x="980" y="40" as="sourcePoint" />
            <mxPoint x="1141" y="40" as="targetPoint" />
          </mxGeometry>
        </mxCell>
        <mxCell id="ehESmXix6-o7HZ08u8BZ-279" value="" style="endArrow=none;html=1;rounded=0;exitX=0.999;exitY=0.679;exitDx=0;exitDy=0;exitPerimeter=0;" edge="1" parent="1" source="ehESmXix6-o7HZ08u8BZ-66">
          <mxGeometry width="50" height="50" relative="1" as="geometry">
            <mxPoint x="730" y="90" as="sourcePoint" />
            <mxPoint x="780" y="40" as="targetPoint" />
          </mxGeometry>
        </mxCell>
        <mxCell id="ehESmXix6-o7HZ08u8BZ-280" value="(1,n)" style="text;html=1;strokeColor=none;fillColor=none;align=center;verticalAlign=middle;whiteSpace=wrap;rounded=0;" vertex="1" parent="1">
          <mxGeometry x="720" y="10" width="60" height="30" as="geometry" />
        </mxCell>
        <mxCell id="ehESmXix6-o7HZ08u8BZ-281" value="(1,1)" style="text;html=1;strokeColor=none;fillColor=none;align=center;verticalAlign=middle;whiteSpace=wrap;rounded=0;" vertex="1" parent="1">
          <mxGeometry x="495" y="10" width="60" height="30" as="geometry" />
        </mxCell>
        <mxCell id="ehESmXix6-o7HZ08u8BZ-282" value="(1,1)" style="text;html=1;strokeColor=none;fillColor=none;align=center;verticalAlign=middle;whiteSpace=wrap;rounded=0;" vertex="1" parent="1">
          <mxGeometry x="980" y="10" width="60" height="30" as="geometry" />
        </mxCell>
        <mxCell id="ehESmXix6-o7HZ08u8BZ-283" value="(1,1)" style="text;html=1;strokeColor=none;fillColor=none;align=center;verticalAlign=middle;whiteSpace=wrap;rounded=0;" vertex="1" parent="1">
          <mxGeometry x="1080" y="10" width="60" height="30" as="geometry" />
        </mxCell>
        <mxCell id="ehESmXix6-o7HZ08u8BZ-285" value="(1,1)" style="text;html=1;strokeColor=none;fillColor=none;align=center;verticalAlign=middle;whiteSpace=wrap;rounded=0;" vertex="1" parent="1">
          <mxGeometry x="760" y="600" width="60" height="30" as="geometry" />
        </mxCell>
        <mxCell id="ehESmXix6-o7HZ08u8BZ-286" value="(1,1 )" style="text;html=1;strokeColor=none;fillColor=none;align=center;verticalAlign=middle;whiteSpace=wrap;rounded=0;" vertex="1" parent="1">
          <mxGeometry x="1140" y="130" width="60" height="30" as="geometry" />
        </mxCell>
        <mxCell id="ehESmXix6-o7HZ08u8BZ-288" value="LOJA_TELEFONE" style="swimlane;fontStyle=0;childLayout=stackLayout;horizontal=1;startSize=30;horizontalStack=0;resizeParent=1;resizeParentMax=0;resizeLast=0;collapsible=1;marginBottom=0;whiteSpace=wrap;html=1;fillColor=#e1d5e7;strokeColor=#9673a6;" vertex="1" parent="1">
          <mxGeometry x="1130" y="390" width="140" height="90" as="geometry" />
        </mxCell>
        <mxCell id="ehESmXix6-o7HZ08u8BZ-289" value="COD_TELEFONE" style="text;strokeColor=none;fillColor=none;align=left;verticalAlign=middle;spacingLeft=4;spacingRight=4;overflow=hidden;points=[[0,0.5],[1,0.5]];portConstraint=eastwest;rotatable=0;whiteSpace=wrap;html=1;" vertex="1" parent="ehESmXix6-o7HZ08u8BZ-288">
          <mxGeometry y="30" width="140" height="30" as="geometry" />
        </mxCell>
        <mxCell id="ehESmXix6-o7HZ08u8BZ-290" value="COD_LOJA" style="text;strokeColor=none;fillColor=none;align=left;verticalAlign=middle;spacingLeft=4;spacingRight=4;overflow=hidden;points=[[0,0.5],[1,0.5]];portConstraint=eastwest;rotatable=0;whiteSpace=wrap;html=1;" vertex="1" parent="ehESmXix6-o7HZ08u8BZ-288">
          <mxGeometry y="60" width="140" height="30" as="geometry" />
        </mxCell>
        <mxCell id="ehESmXix6-o7HZ08u8BZ-292" value="" style="endArrow=none;html=1;rounded=0;entryX=0.492;entryY=1.063;entryDx=0;entryDy=0;entryPerimeter=0;" edge="1" parent="1" target="ehESmXix6-o7HZ08u8BZ-290">
          <mxGeometry width="50" height="50" relative="1" as="geometry">
            <mxPoint x="760" y="630" as="sourcePoint" />
            <mxPoint x="810" y="580" as="targetPoint" />
            <Array as="points">
              <mxPoint x="1199" y="630" />
            </Array>
          </mxGeometry>
        </mxCell>
        <mxCell id="ehESmXix6-o7HZ08u8BZ-293" value="" style="endArrow=none;html=1;rounded=0;" edge="1" parent="1">
          <mxGeometry width="50" height="50" relative="1" as="geometry">
            <mxPoint x="1200" y="390" as="sourcePoint" />
            <mxPoint x="1200" y="130" as="targetPoint" />
          </mxGeometry>
        </mxCell>
        <mxCell id="ehESmXix6-o7HZ08u8BZ-294" value="(1,n)" style="text;html=1;strokeColor=none;fillColor=none;align=center;verticalAlign=middle;whiteSpace=wrap;rounded=0;" vertex="1" parent="1">
          <mxGeometry x="1140" y="480" width="60" height="30" as="geometry" />
        </mxCell>
        <mxCell id="ehESmXix6-o7HZ08u8BZ-295" value="(1,1)" style="text;html=1;strokeColor=none;fillColor=none;align=center;verticalAlign=middle;whiteSpace=wrap;rounded=0;" vertex="1" parent="1">
          <mxGeometry x="1140" y="360" width="60" height="30" as="geometry" />
        </mxCell>
        <mxCell id="ehESmXix6-o7HZ08u8BZ-297" value="FORNECEDOR_TELEFONE" style="swimlane;fontStyle=0;childLayout=stackLayout;horizontal=1;startSize=30;horizontalStack=0;resizeParent=1;resizeParentMax=0;resizeLast=0;collapsible=1;marginBottom=0;whiteSpace=wrap;html=1;fillColor=#e1d5e7;strokeColor=#9673a6;" vertex="1" parent="1">
          <mxGeometry x="1540" y="1170" width="160" height="90" as="geometry" />
        </mxCell>
        <mxCell id="ehESmXix6-o7HZ08u8BZ-298" value="COD_FORNEDOR" style="text;strokeColor=none;fillColor=none;align=left;verticalAlign=middle;spacingLeft=4;spacingRight=4;overflow=hidden;points=[[0,0.5],[1,0.5]];portConstraint=eastwest;rotatable=0;whiteSpace=wrap;html=1;" vertex="1" parent="ehESmXix6-o7HZ08u8BZ-297">
          <mxGeometry y="30" width="160" height="30" as="geometry" />
        </mxCell>
        <mxCell id="ehESmXix6-o7HZ08u8BZ-299" value="COD_TELEFONE" style="text;strokeColor=none;fillColor=none;align=left;verticalAlign=middle;spacingLeft=4;spacingRight=4;overflow=hidden;points=[[0,0.5],[1,0.5]];portConstraint=eastwest;rotatable=0;whiteSpace=wrap;html=1;" vertex="1" parent="ehESmXix6-o7HZ08u8BZ-297">
          <mxGeometry y="60" width="160" height="30" as="geometry" />
        </mxCell>
        <mxCell id="ehESmXix6-o7HZ08u8BZ-301" value="" style="endArrow=none;html=1;rounded=0;entryX=1;entryY=0;entryDx=0;entryDy=0;" edge="1" parent="1" target="ehESmXix6-o7HZ08u8BZ-303">
          <mxGeometry width="50" height="50" relative="1" as="geometry">
            <mxPoint x="1380" y="1690" as="sourcePoint" />
            <mxPoint x="1430" y="1640" as="targetPoint" />
            <Array as="points">
              <mxPoint x="1598" y="1690" />
            </Array>
          </mxGeometry>
        </mxCell>
        <mxCell id="ehESmXix6-o7HZ08u8BZ-302" value="(1,1)" style="text;html=1;strokeColor=none;fillColor=none;align=center;verticalAlign=middle;whiteSpace=wrap;rounded=0;" vertex="1" parent="1">
          <mxGeometry x="1380" y="1660" width="60" height="30" as="geometry" />
        </mxCell>
        <mxCell id="ehESmXix6-o7HZ08u8BZ-303" value="(1,n)" style="text;html=1;strokeColor=none;fillColor=none;align=center;verticalAlign=middle;whiteSpace=wrap;rounded=0;" vertex="1" parent="1">
          <mxGeometry x="1540" y="1260" width="60" height="30" as="geometry" />
        </mxCell>
        <mxCell id="ehESmXix6-o7HZ08u8BZ-305" value="" style="endArrow=none;html=1;rounded=0;entryX=0;entryY=1;entryDx=0;entryDy=0;" edge="1" parent="1" target="ehESmXix6-o7HZ08u8BZ-306">
          <mxGeometry width="50" height="50" relative="1" as="geometry">
            <mxPoint x="1280" y="40" as="sourcePoint" />
            <mxPoint x="1330" y="-10" as="targetPoint" />
            <Array as="points">
              <mxPoint x="1602" y="40" />
            </Array>
          </mxGeometry>
        </mxCell>
        <mxCell id="ehESmXix6-o7HZ08u8BZ-306" value="(1,1)" style="text;html=1;strokeColor=none;fillColor=none;align=center;verticalAlign=middle;whiteSpace=wrap;rounded=0;" vertex="1" parent="1">
          <mxGeometry x="1600" y="1140" width="60" height="30" as="geometry" />
        </mxCell>
        <mxCell id="ehESmXix6-o7HZ08u8BZ-307" value="(1,1)" style="text;html=1;strokeColor=none;fillColor=none;align=center;verticalAlign=middle;whiteSpace=wrap;rounded=0;" vertex="1" parent="1">
          <mxGeometry x="1280" y="10" width="60" height="30" as="geometry" />
        </mxCell>
        <mxCell id="ehESmXix6-o7HZ08u8BZ-310" value="" style="endArrow=none;html=1;rounded=0;entryX=1;entryY=1;entryDx=0;entryDy=0;exitX=0.5;exitY=0;exitDx=0;exitDy=0;" edge="1" parent="1" source="ehESmXix6-o7HZ08u8BZ-14" target="ehESmXix6-o7HZ08u8BZ-88">
          <mxGeometry width="50" height="50" relative="1" as="geometry">
            <mxPoint x="-150" y="-20" as="sourcePoint" />
            <mxPoint x="330" y="-10" as="targetPoint" />
            <Array as="points">
              <mxPoint x="-210" y="-10" />
            </Array>
          </mxGeometry>
        </mxCell>
        <mxCell id="ehESmXix6-o7HZ08u8BZ-311" value="(0,1 )" style="text;html=1;strokeColor=none;fillColor=none;align=center;verticalAlign=middle;whiteSpace=wrap;rounded=0;" vertex="1" parent="1">
          <mxGeometry x="-270" y="540" width="60" height="30" as="geometry" />
        </mxCell>
        <mxCell id="ehESmXix6-o7HZ08u8BZ-312" value="" style="endArrow=none;html=1;rounded=0;exitX=-0.002;exitY=0.989;exitDx=0;exitDy=0;exitPerimeter=0;" edge="1" parent="1" source="ehESmXix6-o7HZ08u8BZ-228">
          <mxGeometry width="50" height="50" relative="1" as="geometry">
            <mxPoint x="160" y="1803.076923076923" as="sourcePoint" />
            <mxPoint x="160" y="1470" as="targetPoint" />
            <Array as="points">
              <mxPoint x="1440" y="1880" />
              <mxPoint x="1440" y="1920" />
              <mxPoint x="160" y="1920" />
            </Array>
          </mxGeometry>
        </mxCell>
        <mxCell id="ehESmXix6-o7HZ08u8BZ-313" value="(1,1)" style="text;html=1;strokeColor=none;fillColor=none;align=center;verticalAlign=middle;whiteSpace=wrap;rounded=0;" vertex="1" parent="1">
          <mxGeometry x="105" y="1470" width="60" height="30" as="geometry" />
        </mxCell>
        <mxCell id="ehESmXix6-o7HZ08u8BZ-314" value="(1,1)" style="text;html=1;strokeColor=none;fillColor=none;align=center;verticalAlign=middle;whiteSpace=wrap;rounded=0;" vertex="1" parent="1">
          <mxGeometry x="1490" y="1850" width="60" height="30" as="geometry" />
        </mxCell>
        <mxCell id="ehESmXix6-o7HZ08u8BZ-317" value="" style="whiteSpace=wrap;html=1;aspect=fixed;fillColor=#d5e8d4;strokeColor=#82b366;" vertex="1" parent="1">
          <mxGeometry x="-830" y="1920" width="80" height="80" as="geometry" />
        </mxCell>
        <mxCell id="ehESmXix6-o7HZ08u8BZ-318" value="" style="whiteSpace=wrap;html=1;aspect=fixed;fillColor=#fff2cc;strokeColor=#d6b656;" vertex="1" parent="1">
          <mxGeometry x="-830" y="2040" width="80" height="80" as="geometry" />
        </mxCell>
        <mxCell id="ehESmXix6-o7HZ08u8BZ-319" value="" style="whiteSpace=wrap;html=1;aspect=fixed;fillColor=#ffe6cc;strokeColor=#d79b00;" vertex="1" parent="1">
          <mxGeometry x="-830" y="2160" width="80" height="80" as="geometry" />
        </mxCell>
        <mxCell id="ehESmXix6-o7HZ08u8BZ-320" value="" style="whiteSpace=wrap;html=1;aspect=fixed;fillColor=#f8cecc;strokeColor=#b85450;" vertex="1" parent="1">
          <mxGeometry x="-830" y="2280" width="80" height="80" as="geometry" />
        </mxCell>
        <mxCell id="ehESmXix6-o7HZ08u8BZ-322" value="SISTEMA DE VENDA DE BEBIDAS" style="text;html=1;strokeColor=none;fillColor=none;align=center;verticalAlign=middle;whiteSpace=wrap;rounded=0;" vertex="1" parent="1">
          <mxGeometry x="-720" y="1920" width="200" height="80" as="geometry" />
        </mxCell>
        <mxCell id="ehESmXix6-o7HZ08u8BZ-323" value="SISTEMA DE FORNECIMENTO DE BEBIDAS" style="text;html=1;strokeColor=none;fillColor=none;align=center;verticalAlign=middle;whiteSpace=wrap;rounded=0;" vertex="1" parent="1">
          <mxGeometry x="-720" y="2040" width="200" height="80" as="geometry" />
        </mxCell>
        <mxCell id="ehESmXix6-o7HZ08u8BZ-324" value="SISTEMA DE ESTOQUE&amp;nbsp;" style="text;html=1;strokeColor=none;fillColor=none;align=center;verticalAlign=middle;whiteSpace=wrap;rounded=0;" vertex="1" parent="1">
          <mxGeometry x="-720" y="2160" width="200" height="90" as="geometry" />
        </mxCell>
        <mxCell id="ehESmXix6-o7HZ08u8BZ-325" value="INTERAÇÃO DO FORNECEDOR COM AS LOJAS FÍSICAS" style="text;html=1;strokeColor=none;fillColor=none;align=center;verticalAlign=middle;whiteSpace=wrap;rounded=0;" vertex="1" parent="1">
          <mxGeometry x="-720" y="2280" width="200" height="80" as="geometry" />
        </mxCell>
        <mxCell id="ehESmXix6-o7HZ08u8BZ-326" value="" style="whiteSpace=wrap;html=1;aspect=fixed;fillColor=#dae8fc;strokeColor=#6c8ebf;" vertex="1" parent="1">
          <mxGeometry x="-830" y="2400" width="80" height="80" as="geometry" />
        </mxCell>
        <mxCell id="ehESmXix6-o7HZ08u8BZ-327" value="TABELAS SECUNDÁRIAS" style="text;html=1;strokeColor=none;fillColor=none;align=center;verticalAlign=middle;whiteSpace=wrap;rounded=0;" vertex="1" parent="1">
          <mxGeometry x="-720" y="2400" width="200" height="80" as="geometry" />
        </mxCell>
        <mxCell id="ehESmXix6-o7HZ08u8BZ-328" value="" style="whiteSpace=wrap;html=1;aspect=fixed;fillColor=#e1d5e7;strokeColor=#9673a6;" vertex="1" parent="1">
          <mxGeometry x="-830" y="2520" width="80" height="80" as="geometry" />
        </mxCell>
        <mxCell id="ehESmXix6-o7HZ08u8BZ-329" value="LISTA DE TELEFONES" style="text;html=1;strokeColor=none;fillColor=none;align=center;verticalAlign=middle;whiteSpace=wrap;rounded=0;" vertex="1" parent="1">
          <mxGeometry x="-720" y="2530" width="200" height="70" as="geometry" />
        </mxCell>
        <mxCell id="ehESmXix6-o7HZ08u8BZ-330" value="" style="whiteSpace=wrap;html=1;aspect=fixed;fillColor=#008a00;fontColor=#ffffff;strokeColor=#005700;" vertex="1" parent="1">
          <mxGeometry x="-830" y="2640" width="80" height="80" as="geometry" />
        </mxCell>
        <mxCell id="ehESmXix6-o7HZ08u8BZ-331" value="TABELA DE RELATÓRIO" style="text;html=1;strokeColor=none;fillColor=none;align=center;verticalAlign=middle;whiteSpace=wrap;rounded=0;" vertex="1" parent="1">
          <mxGeometry x="-720" y="2640" width="200" height="80" as="geometry" />
        </mxCell>
        <mxCell id="ehESmXix6-o7HZ08u8BZ-333" value="" style="whiteSpace=wrap;html=1;aspect=fixed;fillColor=#1ba1e2;fontColor=#ffffff;strokeColor=#006EAF;" vertex="1" parent="1">
          <mxGeometry x="-830" y="2760" width="80" height="80" as="geometry" />
        </mxCell>
        <mxCell id="ehESmXix6-o7HZ08u8BZ-334" value="TABELAS PRINCIPAIS QUE PERTECEM A MAIS DE UM &quot;SISTEMA&quot;" style="text;html=1;strokeColor=none;fillColor=none;align=center;verticalAlign=middle;whiteSpace=wrap;rounded=0;" vertex="1" parent="1">
          <mxGeometry x="-720" y="2760" width="200" height="80" as="geometry" />
        </mxCell>
        <mxCell id="yw2C3HzO3rmrH0eIrEtk-1" value="COD_AREA" style="swimlane;fontStyle=0;childLayout=stackLayout;horizontal=1;startSize=30;horizontalStack=0;resizeParent=1;resizeParentMax=0;resizeLast=0;collapsible=1;marginBottom=0;whiteSpace=wrap;html=1;fillColor=#dae8fc;strokeColor=#6c8ebf;" vertex="1" parent="1">
          <mxGeometry x="1140" y="-270" width="140" height="90" as="geometry" />
        </mxCell>
        <mxCell id="yw2C3HzO3rmrH0eIrEtk-2" value="ID_COD_AREA" style="text;strokeColor=none;fillColor=none;align=left;verticalAlign=middle;spacingLeft=4;spacingRight=4;overflow=hidden;points=[[0,0.5],[1,0.5]];portConstraint=eastwest;rotatable=0;whiteSpace=wrap;html=1;" vertex="1" parent="yw2C3HzO3rmrH0eIrEtk-1">
          <mxGeometry y="30" width="140" height="30" as="geometry" />
        </mxCell>
        <mxCell id="yw2C3HzO3rmrH0eIrEtk-3" value="DES_COD_AREA" style="text;strokeColor=none;fillColor=none;align=left;verticalAlign=middle;spacingLeft=4;spacingRight=4;overflow=hidden;points=[[0,0.5],[1,0.5]];portConstraint=eastwest;rotatable=0;whiteSpace=wrap;html=1;" vertex="1" parent="yw2C3HzO3rmrH0eIrEtk-1">
          <mxGeometry y="60" width="140" height="30" as="geometry" />
        </mxCell>
        <mxCell id="yw2C3HzO3rmrH0eIrEtk-6" value="" style="endArrow=none;html=1;rounded=0;" edge="1" parent="1">
          <mxGeometry width="50" height="50" relative="1" as="geometry">
            <mxPoint x="1200" y="10" as="sourcePoint" />
            <mxPoint x="1200" y="-180" as="targetPoint" />
          </mxGeometry>
        </mxCell>
        <mxCell id="yw2C3HzO3rmrH0eIrEtk-7" value="(1,1)" style="text;html=1;strokeColor=none;fillColor=none;align=center;verticalAlign=middle;whiteSpace=wrap;rounded=0;" vertex="1" parent="1">
          <mxGeometry x="1140" y="-180" width="60" height="30" as="geometry" />
        </mxCell>
        <mxCell id="yw2C3HzO3rmrH0eIrEtk-8" value="(1,n)" style="text;html=1;strokeColor=none;fillColor=none;align=center;verticalAlign=middle;whiteSpace=wrap;rounded=0;" vertex="1" parent="1">
          <mxGeometry x="1140" y="-20" width="60" height="30" as="geometry" />
        </mxCell>
        <mxCell id="yw2C3HzO3rmrH0eIrEtk-9" value="CIDADE" style="swimlane;fontStyle=0;childLayout=stackLayout;horizontal=1;startSize=30;horizontalStack=0;resizeParent=1;resizeParentMax=0;resizeLast=0;collapsible=1;marginBottom=0;whiteSpace=wrap;html=1;fillColor=#dae8fc;strokeColor=#6c8ebf;" vertex="1" parent="1">
          <mxGeometry x="-890" y="140" width="140" height="90" as="geometry" />
        </mxCell>
        <mxCell id="yw2C3HzO3rmrH0eIrEtk-10" value="COD_CIDADE" style="text;strokeColor=none;fillColor=none;align=left;verticalAlign=middle;spacingLeft=4;spacingRight=4;overflow=hidden;points=[[0,0.5],[1,0.5]];portConstraint=eastwest;rotatable=0;whiteSpace=wrap;html=1;" vertex="1" parent="yw2C3HzO3rmrH0eIrEtk-9">
          <mxGeometry y="30" width="140" height="30" as="geometry" />
        </mxCell>
        <mxCell id="yw2C3HzO3rmrH0eIrEtk-11" value="NOM_CIDADE" style="text;strokeColor=none;fillColor=none;align=left;verticalAlign=middle;spacingLeft=4;spacingRight=4;overflow=hidden;points=[[0,0.5],[1,0.5]];portConstraint=eastwest;rotatable=0;whiteSpace=wrap;html=1;" vertex="1" parent="yw2C3HzO3rmrH0eIrEtk-9">
          <mxGeometry y="60" width="140" height="30" as="geometry" />
        </mxCell>
        <mxCell id="yw2C3HzO3rmrH0eIrEtk-13" value="" style="endArrow=none;html=1;rounded=0;exitX=1.007;exitY=0.342;exitDx=0;exitDy=0;exitPerimeter=0;" edge="1" parent="1" source="yw2C3HzO3rmrH0eIrEtk-9">
          <mxGeometry width="50" height="50" relative="1" as="geometry">
            <mxPoint x="-710" y="170" as="sourcePoint" />
            <mxPoint x="-600" y="170" as="targetPoint" />
          </mxGeometry>
        </mxCell>
        <mxCell id="yw2C3HzO3rmrH0eIrEtk-14" value="(1,1)" style="text;html=1;strokeColor=none;fillColor=none;align=center;verticalAlign=middle;whiteSpace=wrap;rounded=0;" vertex="1" parent="1">
          <mxGeometry x="-750" y="140" width="60" height="30" as="geometry" />
        </mxCell>
        <mxCell id="yw2C3HzO3rmrH0eIrEtk-15" value="(0,n)" style="text;html=1;strokeColor=none;fillColor=none;align=center;verticalAlign=middle;whiteSpace=wrap;rounded=0;" vertex="1" parent="1">
          <mxGeometry x="-660" y="140" width="60" height="30" as="geometry" />
        </mxCell>
        <mxCell id="yw2C3HzO3rmrH0eIrEtk-16" value="BAIRRO" style="swimlane;fontStyle=0;childLayout=stackLayout;horizontal=1;startSize=30;horizontalStack=0;resizeParent=1;resizeParentMax=0;resizeLast=0;collapsible=1;marginBottom=0;whiteSpace=wrap;html=1;fillColor=#dae8fc;strokeColor=#6c8ebf;" vertex="1" parent="1">
          <mxGeometry x="-890" y="-50" width="140" height="120" as="geometry" />
        </mxCell>
        <mxCell id="yw2C3HzO3rmrH0eIrEtk-17" value="COD_BAIRRO" style="text;strokeColor=none;fillColor=none;align=left;verticalAlign=middle;spacingLeft=4;spacingRight=4;overflow=hidden;points=[[0,0.5],[1,0.5]];portConstraint=eastwest;rotatable=0;whiteSpace=wrap;html=1;" vertex="1" parent="yw2C3HzO3rmrH0eIrEtk-16">
          <mxGeometry y="30" width="140" height="30" as="geometry" />
        </mxCell>
        <mxCell id="yw2C3HzO3rmrH0eIrEtk-18" value="NOM_BAIRRO" style="text;strokeColor=none;fillColor=none;align=left;verticalAlign=middle;spacingLeft=4;spacingRight=4;overflow=hidden;points=[[0,0.5],[1,0.5]];portConstraint=eastwest;rotatable=0;whiteSpace=wrap;html=1;" vertex="1" parent="yw2C3HzO3rmrH0eIrEtk-16">
          <mxGeometry y="60" width="140" height="30" as="geometry" />
        </mxCell>
        <mxCell id="yw2C3HzO3rmrH0eIrEtk-30" value="COD_CIDADE" style="text;strokeColor=none;fillColor=none;align=left;verticalAlign=middle;spacingLeft=4;spacingRight=4;overflow=hidden;points=[[0,0.5],[1,0.5]];portConstraint=eastwest;rotatable=0;whiteSpace=wrap;html=1;" vertex="1" parent="yw2C3HzO3rmrH0eIrEtk-16">
          <mxGeometry y="90" width="140" height="30" as="geometry" />
        </mxCell>
        <mxCell id="yw2C3HzO3rmrH0eIrEtk-21" value="" style="endArrow=none;html=1;rounded=0;entryX=0.989;entryY=0.992;entryDx=0;entryDy=0;entryPerimeter=0;exitX=0;exitY=1;exitDx=0;exitDy=0;" edge="1" parent="1" source="yw2C3HzO3rmrH0eIrEtk-23" target="yw2C3HzO3rmrH0eIrEtk-22">
          <mxGeometry width="50" height="50" relative="1" as="geometry">
            <mxPoint x="-750" y="60" as="sourcePoint" />
            <mxPoint x="-700" y="10" as="targetPoint" />
            <Array as="points">
              <mxPoint x="-710" y="-20" />
              <mxPoint x="-710" y="130" />
            </Array>
          </mxGeometry>
        </mxCell>
        <mxCell id="yw2C3HzO3rmrH0eIrEtk-22" value="(0,n)" style="text;html=1;strokeColor=none;fillColor=none;align=center;verticalAlign=middle;whiteSpace=wrap;rounded=0;" vertex="1" parent="1">
          <mxGeometry x="-660" y="100" width="60" height="30" as="geometry" />
        </mxCell>
        <mxCell id="yw2C3HzO3rmrH0eIrEtk-23" value="(1,1)" style="text;html=1;strokeColor=none;fillColor=none;align=center;verticalAlign=middle;whiteSpace=wrap;rounded=0;" vertex="1" parent="1">
          <mxGeometry x="-750" y="-50" width="60" height="30" as="geometry" />
        </mxCell>
        <mxCell id="yw2C3HzO3rmrH0eIrEtk-31" value="" style="endArrow=none;html=1;rounded=0;" edge="1" parent="1">
          <mxGeometry width="50" height="50" relative="1" as="geometry">
            <mxPoint x="-840" y="140" as="sourcePoint" />
            <mxPoint x="-840" y="70" as="targetPoint" />
          </mxGeometry>
        </mxCell>
        <mxCell id="yw2C3HzO3rmrH0eIrEtk-34" value="(1,n)" style="text;html=1;strokeColor=none;fillColor=none;align=center;verticalAlign=middle;whiteSpace=wrap;rounded=0;" vertex="1" parent="1">
          <mxGeometry x="-840" y="70" width="60" height="30" as="geometry" />
        </mxCell>
        <mxCell id="yw2C3HzO3rmrH0eIrEtk-35" value="(1,1)" style="text;html=1;strokeColor=none;fillColor=none;align=center;verticalAlign=middle;whiteSpace=wrap;rounded=0;" vertex="1" parent="1">
          <mxGeometry x="-840" y="110" width="60" height="30" as="geometry" />
        </mxCell>
        <mxCell id="yw2C3HzO3rmrH0eIrEtk-36" value="RUA" style="swimlane;fontStyle=0;childLayout=stackLayout;horizontal=1;startSize=30;horizontalStack=0;resizeParent=1;resizeParentMax=0;resizeLast=0;collapsible=1;marginBottom=0;whiteSpace=wrap;html=1;fillColor=#dae8fc;strokeColor=#6c8ebf;" vertex="1" parent="1">
          <mxGeometry x="-890" y="-250" width="140" height="120" as="geometry" />
        </mxCell>
        <mxCell id="yw2C3HzO3rmrH0eIrEtk-37" value="COD_RUA" style="text;strokeColor=none;fillColor=none;align=left;verticalAlign=middle;spacingLeft=4;spacingRight=4;overflow=hidden;points=[[0,0.5],[1,0.5]];portConstraint=eastwest;rotatable=0;whiteSpace=wrap;html=1;" vertex="1" parent="yw2C3HzO3rmrH0eIrEtk-36">
          <mxGeometry y="30" width="140" height="30" as="geometry" />
        </mxCell>
        <mxCell id="yw2C3HzO3rmrH0eIrEtk-38" value="NOM_RUA" style="text;strokeColor=none;fillColor=none;align=left;verticalAlign=middle;spacingLeft=4;spacingRight=4;overflow=hidden;points=[[0,0.5],[1,0.5]];portConstraint=eastwest;rotatable=0;whiteSpace=wrap;html=1;" vertex="1" parent="yw2C3HzO3rmrH0eIrEtk-36">
          <mxGeometry y="60" width="140" height="30" as="geometry" />
        </mxCell>
        <mxCell id="yw2C3HzO3rmrH0eIrEtk-39" value="COD_BAIRRO" style="text;strokeColor=none;fillColor=none;align=left;verticalAlign=middle;spacingLeft=4;spacingRight=4;overflow=hidden;points=[[0,0.5],[1,0.5]];portConstraint=eastwest;rotatable=0;whiteSpace=wrap;html=1;" vertex="1" parent="yw2C3HzO3rmrH0eIrEtk-36">
          <mxGeometry y="90" width="140" height="30" as="geometry" />
        </mxCell>
        <mxCell id="yw2C3HzO3rmrH0eIrEtk-40" value="" style="endArrow=none;html=1;rounded=0;exitX=1.001;exitY=0.018;exitDx=0;exitDy=0;exitPerimeter=0;" edge="1" parent="1" source="yw2C3HzO3rmrH0eIrEtk-37">
          <mxGeometry width="50" height="50" relative="1" as="geometry">
            <mxPoint x="-650" y="130" as="sourcePoint" />
            <mxPoint x="-600" y="80" as="targetPoint" />
            <Array as="points">
              <mxPoint x="-680" y="-220" />
              <mxPoint x="-680" y="80" />
            </Array>
          </mxGeometry>
        </mxCell>
        <mxCell id="yw2C3HzO3rmrH0eIrEtk-41" value="" style="endArrow=none;html=1;rounded=0;entryX=0.357;entryY=1.009;entryDx=0;entryDy=0;entryPerimeter=0;exitX=0.358;exitY=-0.007;exitDx=0;exitDy=0;exitPerimeter=0;" edge="1" parent="1" source="yw2C3HzO3rmrH0eIrEtk-16" target="yw2C3HzO3rmrH0eIrEtk-39">
          <mxGeometry width="50" height="50" relative="1" as="geometry">
            <mxPoint x="-850" y="-80" as="sourcePoint" />
            <mxPoint x="-800" y="-130" as="targetPoint" />
          </mxGeometry>
        </mxCell>
        <mxCell id="yw2C3HzO3rmrH0eIrEtk-42" value="(1,1)" style="text;html=1;strokeColor=none;fillColor=none;align=center;verticalAlign=middle;whiteSpace=wrap;rounded=0;" vertex="1" parent="1">
          <mxGeometry x="-750" y="-250" width="60" height="30" as="geometry" />
        </mxCell>
        <mxCell id="yw2C3HzO3rmrH0eIrEtk-43" value="(0,n)" style="text;html=1;strokeColor=none;fillColor=none;align=center;verticalAlign=middle;whiteSpace=wrap;rounded=0;" vertex="1" parent="1">
          <mxGeometry x="-660" y="50" width="60" height="30" as="geometry" />
        </mxCell>
        <mxCell id="yw2C3HzO3rmrH0eIrEtk-44" value="(1,n)" style="text;html=1;strokeColor=none;fillColor=none;align=center;verticalAlign=middle;whiteSpace=wrap;rounded=0;" vertex="1" parent="1">
          <mxGeometry x="-840" y="-130" width="60" height="30" as="geometry" />
        </mxCell>
        <mxCell id="yw2C3HzO3rmrH0eIrEtk-45" value="(1,1)" style="text;html=1;strokeColor=none;fillColor=none;align=center;verticalAlign=middle;whiteSpace=wrap;rounded=0;" vertex="1" parent="1">
          <mxGeometry x="-840" y="-80" width="60" height="30" as="geometry" />
        </mxCell>
        <mxCell id="yw2C3HzO3rmrH0eIrEtk-56" value="TEMPO_ESPERA" style="swimlane;fontStyle=0;childLayout=stackLayout;horizontal=1;startSize=30;horizontalStack=0;resizeParent=1;resizeParentMax=0;resizeLast=0;collapsible=1;marginBottom=0;whiteSpace=wrap;html=1;fillColor=#dae8fc;strokeColor=#6c8ebf;" vertex="1" parent="1">
          <mxGeometry x="-110" y="860" width="170" height="120" as="geometry" />
        </mxCell>
        <mxCell id="yw2C3HzO3rmrH0eIrEtk-57" value="COD_TEMPO_ESPERA" style="text;strokeColor=none;fillColor=none;align=left;verticalAlign=middle;spacingLeft=4;spacingRight=4;overflow=hidden;points=[[0,0.5],[1,0.5]];portConstraint=eastwest;rotatable=0;whiteSpace=wrap;html=1;" vertex="1" parent="yw2C3HzO3rmrH0eIrEtk-56">
          <mxGeometry y="30" width="170" height="30" as="geometry" />
        </mxCell>
        <mxCell id="yw2C3HzO3rmrH0eIrEtk-59" value="COD_PEDIDO" style="text;strokeColor=none;fillColor=none;align=left;verticalAlign=middle;spacingLeft=4;spacingRight=4;overflow=hidden;points=[[0,0.5],[1,0.5]];portConstraint=eastwest;rotatable=0;whiteSpace=wrap;html=1;" vertex="1" parent="yw2C3HzO3rmrH0eIrEtk-56">
          <mxGeometry y="60" width="170" height="30" as="geometry" />
        </mxCell>
        <mxCell id="yw2C3HzO3rmrH0eIrEtk-58" value="DES_TEMPO_ESPERA" style="text;strokeColor=none;fillColor=none;align=left;verticalAlign=middle;spacingLeft=4;spacingRight=4;overflow=hidden;points=[[0,0.5],[1,0.5]];portConstraint=eastwest;rotatable=0;whiteSpace=wrap;html=1;" vertex="1" parent="yw2C3HzO3rmrH0eIrEtk-56">
          <mxGeometry y="90" width="170" height="30" as="geometry" />
        </mxCell>
        <mxCell id="yw2C3HzO3rmrH0eIrEtk-60" value="" style="endArrow=none;html=1;rounded=0;entryX=0.391;entryY=1;entryDx=0;entryDy=0;entryPerimeter=0;" edge="1" parent="1" target="ehESmXix6-o7HZ08u8BZ-239">
          <mxGeometry width="50" height="50" relative="1" as="geometry">
            <mxPoint x="60" y="890" as="sourcePoint" />
            <mxPoint x="110" y="840" as="targetPoint" />
            <Array as="points">
              <mxPoint x="160" y="890" />
            </Array>
          </mxGeometry>
        </mxCell>
        <mxCell id="yw2C3HzO3rmrH0eIrEtk-61" value="(1,1)" style="text;html=1;strokeColor=none;fillColor=none;align=center;verticalAlign=middle;whiteSpace=wrap;rounded=0;" vertex="1" parent="1">
          <mxGeometry x="60" y="860" width="60" height="30" as="geometry" />
        </mxCell>
        <mxCell id="yw2C3HzO3rmrH0eIrEtk-62" value="(1,1)" style="text;html=1;strokeColor=none;fillColor=none;align=center;verticalAlign=middle;whiteSpace=wrap;rounded=0;" vertex="1" parent="1">
          <mxGeometry x="100" y="840" width="60" height="30" as="geometry" />
        </mxCell>
      </root>
    </mxGraphModel>
  </diagram>
</mxfile>
